<svg xmlns="http://www.w3.org/2000/svg" fill="none" viewBox="0.24 0.47 92.28 117.24">
<path d="M7.42863 4.51215L11.4679 16.0744L23.0301 12.0351L18.9908 0.472904L7.42863 4.51215ZM42.255 30.4107L40.8326 30.8867L42.255 30.4107ZM44.5852 44.0053L46.0711 43.8006L44.5852 44.0053ZM38.4446 70.4123L39.8471 70.9443L38.4446 70.4123ZM11.5951 85.6851L11.1124 87.1054L11.5951 85.6851ZM8.45103 62.3747L9.26706 63.6333L8.45103 62.3747ZM47.8762 99.6842L46.4839 100.242L47.8762 99.6842ZM73.516 116.142L73.6153 114.646L73.516 116.142ZM89.0349 113.537L88.4716 112.147L89.0349 113.537ZM89.4362 111.979C88.6619 112.273 88.2732 113.14 88.5679 113.914C88.8626 114.688 89.7292 115.077 90.5034 114.782L89.4362 111.979ZM17.3284 10.9229C18.0799 11.2714 18.9717 10.9447 19.3203 10.1932C19.6688 9.44168 19.3422 8.54988 18.5906 8.20132L17.3284 10.9229ZM24.0765 10.7356C23.3271 10.3825 22.4333 10.7036 22.0801 11.453C21.727 12.2024 22.0481 13.0962 22.7975 13.4493L24.0765 10.7356ZM28.0769 16.1323C28.7986 16.5392 29.7134 16.284 30.1202 15.5624C30.5271 14.8407 30.2719 13.9259 29.5503 13.5191L28.0769 16.1323ZM34.7713 16.9879C34.1242 16.4706 33.1803 16.5758 32.6631 17.2229C32.1458 17.87 32.251 18.8139 32.8981 19.3312L34.7713 16.9879ZM36.892 23.3486C37.4001 24.0029 38.3424 24.1214 38.9967 23.6133C39.651 23.1052 39.7696 22.1628 39.2614 21.5085L36.892 23.3486ZM42.528 26.9816C42.1887 26.2259 41.3009 25.8884 40.5452 26.2277C39.7895 26.5671 39.4519 27.4549 39.7913 28.2106L42.528 26.9816ZM41.7008 34.0605C41.8768 34.87 42.6757 35.3836 43.4852 35.2077C44.2947 35.0317 44.8083 34.2328 44.6324 33.4233L41.7008 34.0605ZM45.6595 40.408C45.5671 39.5848 44.8248 38.9923 44.0016 39.0847C43.1783 39.1771 42.5858 39.9194 42.6782 40.7427L45.6595 40.408ZM43.3271 47.4333C43.3317 48.2617 44.0069 48.9296 44.8353 48.925C45.6637 48.9205 46.3316 48.2452 46.3271 47.4168L43.3271 47.4333ZM45.5383 54.5476C45.7135 53.7379 45.1991 52.9395 44.3895 52.7642C43.5798 52.589 42.7814 53.1034 42.6061 53.913L45.5383 54.5476ZM40.7318 60.309C40.455 61.0898 40.8636 61.9472 41.6444 62.224C42.4253 62.5008 43.2826 62.0922 43.5594 61.3113L40.7318 60.309ZM41.0847 67.7681C41.3896 66.9978 41.0123 66.1262 40.2421 65.8213C39.4718 65.5164 38.6002 65.8937 38.2953 66.664L41.0847 67.7681ZM35.9506 72.2211C35.55 72.9462 35.8131 73.8588 36.5382 74.2594C37.2633 74.66 38.1759 74.3969 38.5765 73.6718L35.9506 72.2211ZM35.1343 78.4883C35.685 77.8695 35.6298 76.9214 35.011 76.3706C34.3922 75.8198 33.444 75.875 32.8933 76.4939L35.1343 78.4883ZM29.0022 80.0986C28.3439 80.6015 28.218 81.5429 28.721 82.2012C29.224 82.8594 30.1653 82.9854 30.8236 82.4824L29.0022 80.0986ZM25.8156 85.5828C26.5609 85.2211 26.8718 84.3237 26.5101 83.5784C26.1483 82.8331 25.2509 82.5222 24.5056 82.8839L25.8156 85.5828ZM19.5805 84.5929C18.7693 84.7607 18.2477 85.5544 18.4154 86.3656C18.5832 87.1769 19.3769 87.6985 20.1881 87.5308L19.5805 84.5929ZM14.1248 87.8023C14.9464 87.9091 15.6989 87.3297 15.8056 86.5081C15.9124 85.6866 15.333 84.9341 14.5115 84.8273L14.1248 87.8023ZM9.94786 83.3678C9.21012 82.9909 8.30655 83.2835 7.92968 84.0212C7.55281 84.7589 7.84535 85.6625 8.58308 86.0394L9.94786 83.3678ZM4.1303 82.7632C4.70415 83.3607 5.65371 83.3799 6.25119 82.806C6.84868 82.2321 6.86783 81.2826 6.29398 80.6851L4.1303 82.7632ZM3.8894 76.9622C3.58981 76.1898 2.72083 75.8066 1.94846 76.1062C1.17611 76.4057 0.792852 77.2747 1.09244 78.0471L3.8894 76.9622ZM0.246691 72.4356C0.184318 73.2617 0.803419 73.9819 1.6295 74.0443C2.45557 74.1067 3.1758 73.4876 3.23818 72.6615L0.246691 72.4356ZM4.52059 68.487C4.92508 67.764 4.66691 66.85 3.94394 66.4455C3.22097 66.041 2.30699 66.2992 1.9025 67.0222L4.52059 68.487ZM5.44536 62.7518C4.81799 63.2928 4.74799 64.2399 5.28901 64.8673C5.83003 65.4947 6.77719 65.5647 7.40456 65.0237L5.44536 62.7518ZM11.7983 62.2533C12.5563 61.9192 12.9 61.0338 12.5658 60.2758C12.2317 59.5177 11.3463 59.1741 10.5882 59.5082L11.7983 62.2533ZM17.25 58.1197C16.4218 58.0999 15.7343 58.7551 15.7144 59.5833C15.6945 60.4115 16.3497 61.099 17.1779 61.1189L17.25 58.1197ZM22.503 62.5124C23.2441 62.8826 24.145 62.5818 24.5152 61.8407C24.8853 61.0996 24.5846 60.1987 23.8435 59.8285L22.503 62.5124ZM29.2455 63.6443C28.6354 63.084 27.6865 63.1244 27.1261 63.7346C26.5658 64.3447 26.6062 65.2936 27.2164 65.854L29.2455 63.6443ZM31.2323 70.262C31.7429 70.9144 32.6856 71.0294 33.338 70.5188C33.9904 70.0083 34.1054 69.0655 33.5949 68.4131L31.2323 70.262ZM37.2352 73.6357C36.7949 72.934 35.8691 72.7221 35.1673 73.1624C34.4656 73.6027 34.2537 74.5285 34.6941 75.2302L37.2352 73.6357ZM37.7444 80.5226C38.1339 81.2538 39.0424 81.5307 39.7736 81.1412C40.5047 80.7517 40.7816 79.8432 40.3921 79.1121L37.7444 80.5226ZM43.2009 84.7434C42.8492 83.9934 41.956 83.6705 41.206 84.0222C40.4559 84.3739 40.133 85.2671 40.4847 86.0171L43.2009 84.7434ZM42.9915 91.6461C43.3154 92.4086 44.196 92.7642 44.9586 92.4403C45.721 92.1165 46.0766 91.2358 45.7528 90.4733L42.9915 91.6461ZM48.1212 96.2484C47.8139 95.479 46.9412 95.1044 46.1718 95.4117C45.4025 95.7189 45.0279 96.5917 45.3351 97.361L48.1212 96.2484ZM47.7013 102.823C48.0987 103.55 49.0102 103.817 49.737 103.419C50.4639 103.022 50.731 102.11 50.3335 101.384L47.7013 102.823ZM53.223 105.456C52.6701 104.839 51.7218 104.787 51.1048 105.34C50.4879 105.893 50.436 106.841 50.9888 107.458L53.223 105.456ZM55.183 111.245C55.8509 111.735 56.7896 111.591 57.2797 110.923C57.7699 110.256 57.6257 109.317 56.9578 108.827L55.183 111.245ZM61.3072 111.437C60.5621 111.075 59.6645 111.386 59.3025 112.131C58.9405 112.876 59.2511 113.773 59.9962 114.135L61.3072 111.437ZM65.2031 116.159C65.9966 116.397 66.8328 115.946 67.0708 115.153C67.3087 114.359 66.8584 113.523 66.0649 113.285L65.2031 116.159ZM71.0665 114.381C70.2463 114.264 69.487 114.835 69.3707 115.655C69.2544 116.475 69.825 117.235 70.6453 117.351L71.0665 114.381ZM77.5635 117.66C78.3907 117.614 79.0242 116.907 78.9786 116.08C78.9329 115.252 78.2254 114.619 77.3982 114.664L77.5635 117.66ZM84.873 113.389C84.0766 113.617 83.6161 114.448 83.8444 115.244C84.0727 116.041 84.9033 116.501 85.6996 116.273L84.873 113.389ZM90.5924 114.55C91.3727 114.272 91.7795 113.414 91.501 112.633C91.2226 111.853 90.3644 111.446 89.5842 111.725L90.5924 114.55ZM91.5929 114.354C92.359 114.039 92.7243 113.162 92.4089 112.396C92.0935 111.63 91.2168 111.265 90.4508 111.58L91.5929 114.354ZM14.5778 9.62475C15.5083 10.0734 16.4262 10.5044 17.3284 10.9229L18.5906 8.20132C17.6968 7.78678 16.7935 7.36255 15.8809 6.9225L14.5778 9.62475ZM22.7975 13.4493C24.6632 14.3286 26.4245 15.2007 28.0769 16.1323L29.5503 13.5191C27.806 12.5356 25.9702 11.6281 24.0765 10.7356L22.7975 13.4493ZM32.8981 19.3312C34.374 20.5111 35.7094 21.8258 36.892 23.3486L39.2614 21.5085C37.9176 19.778 36.4099 18.2978 34.7713 16.9879L32.8981 19.3312ZM39.7913 28.2106C40.1671 29.0474 40.5149 29.9374 40.8326 30.8867L43.6775 29.9347C43.3297 28.8955 42.9462 27.9128 42.528 26.9816L39.7913 28.2106ZM40.8326 30.8867C41.194 31.967 41.4743 33.0183 41.7008 34.0605L44.6324 33.4233C44.3854 32.287 44.0773 31.1295 43.6775 29.9347L40.8326 30.8867ZM42.6782 40.7427C42.8031 41.8556 42.9339 43.0101 43.0992 44.2101L46.0711 43.8006C45.9116 42.6427 45.7846 41.5229 45.6595 40.408L42.6782 40.7427ZM43.0992 44.2101C43.2489 45.2965 43.3213 46.37 43.3271 47.4333L46.3271 47.4168C46.3206 46.2278 46.2395 45.0229 46.0711 43.8006L43.0992 44.2101ZM42.6061 53.913C42.1431 56.0527 41.4883 58.1749 40.7318 60.309L43.5594 61.3113C44.3414 59.1054 45.0392 56.8536 45.5383 54.5476L42.6061 53.913ZM38.2953 66.664C37.8738 67.7289 37.4511 68.8021 37.0421 69.8803L39.8471 70.9443C40.2479 69.8877 40.6638 68.8316 41.0847 67.7681L38.2953 66.664ZM37.0421 69.8803C36.7468 70.6588 36.3811 71.442 35.9506 72.2211L38.5765 73.6718C39.0702 72.7783 39.4974 71.8662 39.8471 70.9443L37.0421 69.8803ZM32.8933 76.4939C31.7349 77.7954 30.4219 79.0139 29.0022 80.0986L30.8236 82.4824C32.3934 81.2829 33.8473 79.9344 35.1343 78.4883L32.8933 76.4939ZM24.5056 82.8839C22.8924 83.667 21.2334 84.2511 19.5805 84.5929L20.1881 87.5308C22.1118 87.1329 24.006 86.4612 25.8156 85.5828L24.5056 82.8839ZM14.5115 84.8273C13.6833 84.7197 12.8702 84.5342 12.0778 84.2649L11.1124 87.1054C12.1005 87.4412 13.108 87.6702 14.1248 87.8023L14.5115 84.8273ZM12.0778 84.2649C11.3223 84.0082 10.6118 83.707 9.94786 83.3678L8.58308 86.0394C9.37854 86.4457 10.2227 86.803 11.1124 87.1054L12.0778 84.2649ZM6.29398 80.6851C5.21221 79.5588 4.4054 78.2925 3.8894 76.9622L1.09244 78.0471C1.7581 79.7632 2.78615 81.3637 4.1303 82.7632L6.29398 80.6851ZM3.23818 72.6615C3.34367 71.2643 3.75768 69.8506 4.52059 68.487L1.9025 67.0222C0.930505 68.7595 0.385662 70.5951 0.246691 72.4356L3.23818 72.6615ZM7.40456 65.0237C7.96264 64.5424 8.58244 64.0772 9.26706 63.6333L7.63499 61.1161C6.84101 61.6309 6.11131 62.1775 5.44536 62.7518L7.40456 65.0237ZM9.26706 63.6333C10.1327 63.0721 10.9765 62.6156 11.7983 62.2533L10.5882 59.5082C9.60875 59.94 8.6243 60.4747 7.63499 61.1161L9.26706 63.6333ZM17.1779 61.1189C19.0011 61.1627 20.7734 61.6485 22.503 62.5124L23.8435 59.8285C21.7773 58.7966 19.5744 58.1756 17.25 58.1197L17.1779 61.1189ZM27.2164 65.854C28.6053 67.1294 29.9453 68.6173 31.2323 70.262L33.5949 68.4131C32.229 66.6677 30.7792 65.0527 29.2455 63.6443L27.2164 65.854ZM34.6941 75.2302C35.7661 76.9386 36.7835 78.7189 37.7444 80.5226L40.3921 79.1121C39.4038 77.2568 38.351 75.4139 37.2352 73.6357L34.6941 75.2302ZM40.4847 86.0171C41.3909 87.9496 42.2271 89.8464 42.9915 91.6461L45.7528 90.4733C44.9773 88.6476 44.126 86.7162 43.2009 84.7434L40.4847 86.0171ZM45.3351 97.361C45.7526 98.4065 46.1396 99.3838 46.4839 100.242L49.2684 99.126C48.9236 98.266 48.5448 97.3091 48.1212 96.2484L45.3351 97.361ZM46.4839 100.242C46.8421 101.136 47.2494 101.996 47.7013 102.823L50.3335 101.384C49.9381 100.66 49.5819 99.9078 49.2684 99.126L46.4839 100.242ZM50.9888 107.458C52.2513 108.867 53.662 110.129 55.183 111.245L56.9578 108.827C55.5932 107.825 54.3385 106.701 53.223 105.456L50.9888 107.458ZM59.9962 114.135C61.6691 114.948 63.4158 115.622 65.2031 116.159L66.0649 113.285C64.4249 112.793 62.829 112.176 61.3072 111.437L59.9962 114.135ZM70.6453 117.351C71.5675 117.482 72.4926 117.578 73.4167 117.639L73.6153 114.646C72.7658 114.589 71.9149 114.501 71.0665 114.381L70.6453 117.351ZM73.4167 117.639C74.8003 117.731 76.1853 117.736 77.5635 117.66L77.3982 114.664C76.1376 114.734 74.8741 114.729 73.6153 114.646L73.4167 117.639ZM85.6996 116.273C87.0241 115.893 88.3264 115.443 89.5982 114.928L88.4716 112.147C87.2966 112.623 86.0944 113.039 84.873 113.389L85.6996 116.273ZM89.5982 114.928C89.9233 114.796 90.2674 114.666 90.5924 114.55L89.5842 111.725C89.2264 111.852 88.8421 111.997 88.4716 112.147L89.5982 114.928ZM90.4508 111.58C90.2133 111.678 89.8815 111.809 89.4362 111.979L90.5034 114.782C90.9627 114.607 91.3216 114.466 91.5929 114.354L90.4508 111.58Z" fill="black" fill-opacity="0.4"/>
</svg>