<svg xmlns="http://www.w3.org/2000/svg" fill="none" viewBox="0.04 0.35 270.52 150.15">
<path d="M0.0418978 10.3476L10.0409 17.4201L17.1134 7.42107L7.11437 0.348599L0.0418978 10.3476ZM82.7072 13.8738L81.825 15.0869L82.7072 13.8738ZM103.521 34.5446L104.612 33.5156L103.521 34.5446ZM125.474 87.8609L126.925 87.4803L125.474 87.8609ZM97.8183 147.45L98.2493 148.886L97.8183 147.45ZM63.6046 110.955L64.9995 111.507L63.6046 110.955ZM177.935 126.921L177.125 128.184L177.935 126.921ZM242.656 123.785L241.868 122.509L242.656 123.785ZM266.321 100.121L265.055 99.3155L266.321 100.121ZM266.498 97.8632C266.039 98.5524 266.225 99.4837 266.914 99.9433C267.603 100.403 268.535 100.217 268.994 99.5272L266.498 97.8632ZM12.0063 9.80343C12.8216 9.65629 13.3632 8.87612 13.2161 8.06086C13.0689 7.24561 12.2888 6.70399 11.4735 6.85113L12.0063 9.80343ZM17.7679 5.67746C16.9541 5.8325 16.4201 6.61789 16.5751 7.43168C16.7301 8.24547 17.5155 8.77949 18.3293 8.62445L17.7679 5.67746ZM24.6267 7.42612C25.4409 7.2733 25.9771 6.48937 25.8243 5.67516C25.6715 4.86095 24.8875 4.32479 24.0733 4.47761L24.6267 7.42612ZM30.415 3.33692C29.5982 3.47515 29.0481 4.24937 29.1863 5.06618C29.3245 5.88299 30.0988 6.43309 30.9156 6.29486L30.415 3.33692ZM37.2054 5.33613C38.0267 5.22747 38.6044 4.47361 38.4957 3.65234C38.387 2.83107 37.6332 2.25339 36.8119 2.36205L37.2054 5.33613ZM43.2764 1.68254C42.4503 1.74396 41.8303 2.46347 41.8918 3.28961C41.9532 4.11576 42.6727 4.7357 43.4988 4.67429L43.2764 1.68254ZM49.7872 4.44842C50.6156 4.45371 51.2915 3.78645 51.2968 2.95804C51.3021 2.12963 50.6348 1.45378 49.8064 1.44848L49.7872 4.44842ZM56.3636 1.81733C55.5402 1.72695 54.7993 2.32125 54.7089 3.14473C54.6186 3.96821 55.2129 4.70905 56.0363 4.79943L56.3636 1.81733ZM62.1814 5.84168C62.9883 6.02952 63.7946 5.52772 63.9825 4.72087C64.1703 3.91402 63.6685 3.10766 62.8617 2.91982L62.1814 5.84168ZM69.1805 4.81535C68.4035 4.52806 67.5407 4.92506 67.2534 5.70207C66.9661 6.47909 67.3631 7.34188 68.1401 7.62917L69.1805 4.81535ZM73.8411 10.1415C74.5781 10.5198 75.4822 10.229 75.8606 9.49203C76.2389 8.75503 75.9481 7.85089 75.2111 7.47257L73.8411 10.1415ZM80.8877 10.791C80.1954 10.3362 79.2653 10.5287 78.8105 11.2211C78.3556 11.9135 78.5482 12.8435 79.2405 13.2984L80.8877 10.791ZM84.6668 17.2799C85.3082 17.8042 86.2532 17.7093 86.7775 17.0679C87.3018 16.4265 87.2069 15.4815 86.5655 14.9572L84.6668 17.2799ZM92.1152 19.9869C91.5274 19.4031 90.5777 19.4063 89.9939 19.9941C89.4101 20.5818 89.4133 21.5316 90.001 22.1154L92.1152 19.9869ZM94.9983 27.3935C95.5547 28.0072 96.5033 28.0537 97.1171 27.4973C97.7308 26.9409 97.7773 25.9923 97.2209 25.3785L94.9983 27.3935ZM102.136 30.8374C101.578 30.2245 100.63 30.1796 100.017 30.737C99.4039 31.2944 99.3589 32.2431 99.9164 32.856L102.136 30.8374ZM104.322 37.6914C104.857 38.3236 105.803 38.4021 106.436 37.8668C107.068 37.3314 107.146 36.385 106.611 35.7527L104.322 37.6914ZM110.237 40.5177C109.77 39.8337 108.836 39.658 108.152 40.1254C107.468 40.5928 107.293 41.5261 107.76 42.2101L110.237 40.5177ZM110.742 47.059C111.143 47.784 112.056 48.0466 112.78 47.6456C113.505 47.2446 113.768 46.3319 113.367 45.607L110.742 47.059ZM116.03 50.9353C115.689 50.1802 114.801 49.8444 114.046 50.1852C113.291 50.526 112.955 51.4144 113.296 52.1695L116.03 50.9353ZM115.474 57.4756C115.764 58.2516 116.628 58.6455 117.404 58.3555C118.18 58.0655 118.574 57.2013 118.284 56.4253L115.474 57.4756ZM120.205 62.0168C119.955 61.227 119.112 60.7895 118.322 61.0396C117.532 61.2898 117.095 62.1328 117.345 62.9225L120.205 62.0168ZM118.985 68.4677C119.206 69.2659 120.033 69.7333 120.831 69.5117C121.629 69.2901 122.097 68.4633 121.875 67.6651L118.985 68.4677ZM123.378 73.3381C123.173 72.5353 122.357 72.0503 121.554 72.2547C120.751 72.4592 120.266 73.2757 120.471 74.0785L123.378 73.3381ZM121.881 79.7305C122.079 80.5348 122.892 81.026 123.696 80.8275C124.501 80.6291 124.992 79.8162 124.793 79.0119L121.881 79.7305ZM126.201 84.6666C125.997 83.8635 125.181 83.3775 124.378 83.581C123.575 83.7845 123.089 84.6005 123.293 85.4035L126.201 84.6666ZM124.643 91.0329C124.793 91.8477 125.575 92.3867 126.39 92.237C127.204 92.0872 127.743 91.3053 127.594 90.4905L124.643 91.0329ZM128.301 96.5937C128.257 95.7664 127.551 95.1312 126.724 95.175C125.897 95.2188 125.262 95.9249 125.305 96.7521L128.301 96.5937ZM125.285 102.538C125.238 103.365 125.869 104.074 126.696 104.122C127.524 104.17 128.233 103.538 128.28 102.711L125.285 102.538ZM127.624 108.774C127.753 107.956 127.195 107.188 126.377 107.058C125.558 106.928 124.79 107.487 124.661 108.305L127.624 108.774ZM123.479 113.994C123.273 114.796 123.756 115.614 124.558 115.82C125.36 116.027 126.178 115.544 126.385 114.742L123.479 113.994ZM124.587 120.564C124.869 119.785 124.466 118.925 123.687 118.644C122.908 118.362 122.048 118.765 121.766 119.544L124.587 120.564ZM119.526 124.895C119.168 125.643 119.484 126.538 120.231 126.896C120.978 127.254 121.874 126.939 122.232 126.192L119.526 124.895ZM119.299 131.556C119.736 130.853 119.52 129.928 118.816 129.491C118.112 129.054 117.187 129.27 116.75 129.974L119.299 131.556ZM113.42 134.679C112.899 135.324 113 136.268 113.645 136.789C114.289 137.309 115.234 137.208 115.754 136.564L113.42 134.679ZM111.56 141.077C112.167 140.513 112.202 139.564 111.638 138.957C111.074 138.35 110.125 138.315 109.518 138.879L111.56 141.077ZM105.044 142.406C104.352 142.862 104.161 143.792 104.616 144.484C105.072 145.176 106.002 145.368 106.694 144.912L105.044 142.406ZM101.196 147.837C101.961 147.52 102.325 146.643 102.008 145.877C101.691 145.112 100.814 144.748 100.049 145.065L101.196 147.837ZM94.3803 146.779C93.5694 146.948 93.0496 147.743 93.2193 148.554C93.389 149.365 94.1839 149.885 94.9948 149.715L94.3803 146.779ZM88.3218 150.487C89.1501 150.47 89.8076 149.785 89.7904 148.956C89.7732 148.128 89.0879 147.471 88.2596 147.488L88.3218 150.487ZM82.1525 146.992C81.3384 146.839 80.5539 147.374 80.4003 148.188C80.2467 149.002 80.7822 149.787 81.5962 149.94L82.1525 146.992ZM75.1213 147.941C75.8791 148.276 76.7648 147.933 77.0997 147.175C77.4345 146.418 77.0918 145.532 76.334 145.197L75.1213 147.941ZM71.139 142.082C70.4886 141.569 69.5454 141.68 69.0323 142.331C68.5193 142.981 68.6307 143.924 69.2811 144.437L71.139 142.082ZM64.5269 139.532C65.0181 140.199 65.9571 140.341 66.6242 139.85C67.2913 139.359 67.4339 138.42 66.9427 137.753L64.5269 139.532ZM64.0632 132.464C63.7686 131.689 62.9021 131.301 62.1278 131.595C61.3535 131.89 60.9647 132.756 61.2593 133.531L64.0632 132.464ZM59.6779 126.903C59.768 127.726 60.5087 128.321 61.3322 128.231C62.1557 128.14 62.7502 127.4 62.6601 126.576L59.6779 126.903ZM62.6928 120.471C62.7863 119.648 62.1948 118.905 61.3717 118.811C60.5486 118.718 59.8055 119.309 59.7119 120.132L62.6928 120.471ZM61.0992 113.567C60.8564 114.359 61.3017 115.198 62.0938 115.441C62.8859 115.683 63.7247 115.238 63.9675 114.446L61.0992 113.567ZM66.1725 108.806C66.5287 108.058 66.2111 107.163 65.4632 106.807C64.7153 106.45 63.8202 106.768 63.464 107.516L66.1725 108.806ZM66.5541 102.137C66.0833 102.819 66.2543 103.753 66.9359 104.224C67.6176 104.695 68.5518 104.524 69.0226 103.842L66.5541 102.137ZM72.71 99.4668C73.3053 98.8907 73.3209 97.941 72.7448 97.3457C72.1687 96.7504 71.2191 96.7348 70.6238 97.3109L72.71 99.4668ZM75.6039 93.4402C74.8981 93.8739 74.6774 94.7977 75.1111 95.5035C75.5448 96.2094 76.4686 96.43 77.1744 95.9963L75.6039 93.4402ZM82.3028 93.5636C83.0842 93.2885 83.4946 92.432 83.2195 91.6506C82.9444 90.8692 82.0879 90.4587 81.3065 90.7338L82.3028 93.5636ZM87.3851 89.2185C86.5667 89.3471 86.0075 90.1148 86.1361 90.9332C86.2647 91.7516 87.0324 92.3107 87.8508 92.1821L87.3851 89.2185ZM93.6254 91.7217C94.4538 91.7139 95.119 91.036 95.1111 90.2076C95.1033 89.3792 94.4254 88.714 93.597 88.7219L93.6254 91.7217ZM99.7503 89.0276C98.9263 88.9415 98.1886 89.5396 98.1025 90.3636C98.0164 91.1875 98.6145 91.9252 99.4385 92.0113L99.7503 89.0276ZM105.258 92.8937C106.071 93.0527 106.859 92.5226 107.018 91.7096C107.177 90.8966 106.647 90.1086 105.834 89.9495L105.258 92.8937ZM111.774 91.3381C110.974 91.1223 110.151 91.5958 109.935 92.3956C109.719 93.1955 110.193 94.0188 110.993 94.2345L111.774 91.3381ZM116.663 95.9446C117.45 96.2055 118.299 95.7796 118.559 94.9933C118.82 94.207 118.394 93.3581 117.608 93.0972L116.663 95.9446ZM123.336 95.1521C122.562 94.8547 121.694 95.2405 121.397 96.0137C121.1 96.7869 121.486 97.6548 122.259 97.9521L123.336 95.1521ZM127.763 100.197C128.524 100.524 129.407 100.172 129.734 99.4114C130.061 98.6504 129.71 97.7681 128.949 97.4409L127.763 100.197ZM134.472 99.9282C133.722 99.5759 132.829 99.8982 132.477 100.648C132.124 101.398 132.447 102.291 133.196 102.643L134.472 99.9282ZM138.558 105.258C139.298 105.632 140.2 105.335 140.573 104.595C140.947 103.856 140.65 102.954 139.91 102.58L138.558 105.258ZM145.271 105.372C144.541 104.98 143.632 105.255 143.241 105.985C142.849 106.715 143.124 107.624 143.854 108.016L145.271 105.372ZM149.096 110.899C149.818 111.306 150.732 111.05 151.139 110.329C151.546 109.607 151.291 108.692 150.569 108.285L149.096 110.899ZM155.797 111.297C155.083 110.878 154.164 111.116 153.744 111.83C153.324 112.544 153.563 113.464 154.277 113.883L155.797 111.297ZM159.407 116.956C160.115 117.387 161.038 117.163 161.469 116.456C161.9 115.748 161.676 114.825 160.968 114.394L159.407 116.956ZM166.105 117.571C165.403 117.131 164.477 117.343 164.037 118.045C163.597 118.747 163.809 119.673 164.511 120.113L166.105 117.571ZM169.568 123.319C170.265 123.766 171.193 123.563 171.64 122.865C172.086 122.167 171.883 121.24 171.185 120.793L169.568 123.319ZM176.226 124.037C175.53 123.588 174.601 123.788 174.152 124.484C173.703 125.18 173.903 126.109 174.599 126.558L176.226 124.037ZM179.642 129.695C180.365 130.1 181.279 129.842 181.684 129.12C182.089 128.397 181.832 127.483 181.109 127.078L179.642 129.695ZM186.065 129.481C185.299 129.164 184.422 129.528 184.105 130.293C183.788 131.059 184.152 131.936 184.918 132.253L186.065 129.481ZM190.453 134.175C191.25 134.401 192.08 133.939 192.306 133.142C192.533 132.345 192.07 131.516 191.273 131.289L190.453 134.175ZM196.66 132.501C195.843 132.363 195.07 132.914 194.932 133.731C194.795 134.548 195.345 135.322 196.162 135.459L196.66 132.501ZM201.967 136.126C202.793 136.178 203.506 135.551 203.558 134.724C203.611 133.897 202.983 133.184 202.156 133.132L201.967 136.126ZM207.698 133.211C206.87 133.239 206.221 133.933 206.249 134.761C206.277 135.589 206.97 136.237 207.798 136.209L207.698 133.211ZM213.603 135.749C214.425 135.647 215.009 134.897 214.906 134.075C214.804 133.253 214.055 132.67 213.233 132.772L213.603 135.749ZM218.717 131.85C217.906 132.021 217.388 132.817 217.56 133.628C217.732 134.438 218.528 134.956 219.338 134.785L218.717 131.85ZM224.967 133.353C225.761 133.117 226.214 132.282 225.978 131.488C225.742 130.694 224.907 130.241 224.113 130.477L224.967 133.353ZM229.389 128.684C228.616 128.98 228.229 129.848 228.525 130.621C228.822 131.395 229.689 131.782 230.463 131.485L229.389 128.684ZM235.798 129.208C236.547 128.854 236.868 127.96 236.514 127.211C236.16 126.462 235.266 126.141 234.517 126.495L235.798 129.208ZM239.469 123.928C238.748 124.336 238.495 125.252 238.903 125.972C239.311 126.693 240.227 126.947 240.948 126.538L239.469 123.928ZM245.858 123.502C246.545 123.039 246.725 122.106 246.261 121.42C245.798 120.733 244.865 120.553 244.179 121.016L245.858 123.502ZM248.611 117.754C247.964 118.272 247.859 119.215 248.376 119.863C248.893 120.51 249.837 120.615 250.484 120.098L248.611 117.754ZM254.825 116.344C255.431 115.778 255.463 114.829 254.898 114.224C254.332 113.618 253.383 113.586 252.777 114.152L254.825 116.344ZM256.662 110.241C256.1 110.85 256.139 111.799 256.748 112.36C257.357 112.922 258.306 112.883 258.867 112.274L256.662 110.241ZM262.598 107.922C263.114 107.274 263.007 106.33 262.359 105.814C261.711 105.298 260.767 105.405 260.251 106.053L262.598 107.922ZM263.533 101.618C263.064 102.3 263.237 103.234 263.92 103.703C264.603 104.172 265.537 103.999 266.006 103.316L263.533 101.618ZM268.882 98.9862C269.356 98.3067 269.189 97.3717 268.51 96.8978C267.83 96.424 266.895 96.5907 266.421 97.2702L268.882 98.9862ZM270.329 97.4797C270.769 96.7783 270.558 95.8523 269.857 95.4115C269.155 94.9706 268.23 95.1818 267.789 95.8832L270.329 97.4797ZM8.83108 10.3628C9.89968 10.1796 10.958 9.99264 12.0063 9.80343L11.4735 6.85113C10.4325 7.03901 9.38293 7.22441 8.32419 7.4059L8.83108 10.3628ZM18.3293 8.62445C20.4692 8.21676 22.5626 7.81354 24.6267 7.42612L24.0733 4.47761C22.004 4.866 19.8996 5.27133 17.7679 5.67746L18.3293 8.62445ZM30.9156 6.29486C33.0464 5.93424 35.1405 5.60933 37.2054 5.33613L36.8119 2.36205C34.7026 2.64113 32.5716 2.97194 30.415 3.33692L30.9156 6.29486ZM43.4988 4.67429C45.6202 4.51659 47.7137 4.43517 49.7872 4.44842L49.8064 1.44848C47.6416 1.43464 45.4669 1.51971 43.2764 1.68254L43.4988 4.67429ZM56.0363 4.79943C58.0936 5.02522 60.1393 5.36625 62.1814 5.84168L62.8617 2.91982C60.6966 2.41576 58.5326 2.05539 56.3636 1.81733L56.0363 4.79943ZM68.1401 7.62917C70.0318 8.32862 71.9303 9.16059 73.8411 10.1415L75.2111 7.47257C73.1947 6.43749 71.1862 5.55696 69.1805 4.81535L68.1401 7.62917ZM79.2405 13.2984C80.0981 13.8617 80.9594 14.4574 81.825 15.0869L83.5895 12.6607C82.6864 12.0039 81.7859 11.3811 80.8877 10.791L79.2405 13.2984ZM81.825 15.0869C82.8139 15.8062 83.7584 16.5373 84.6668 17.2799L86.5655 14.9572C85.6151 14.1803 84.626 13.4145 83.5895 12.6607L81.825 15.0869ZM90.001 22.1154C91.7187 23.8215 93.354 25.5797 94.9983 27.3935L97.2209 25.3785C95.5618 23.5484 93.8866 21.7464 92.1152 19.9869L90.001 22.1154ZM99.9164 32.856C100.731 33.752 101.566 34.6584 102.429 35.5736L104.612 33.5156C103.765 32.6168 102.942 31.7242 102.136 30.8374L99.9164 32.856ZM102.429 35.5736C103.084 36.2682 103.714 36.9743 104.322 37.6914L106.611 35.7527C105.97 34.9954 105.304 34.2495 104.612 33.5156L102.429 35.5736ZM107.76 42.2101C108.836 43.7851 109.826 45.4031 110.742 47.059L113.367 45.607C112.409 43.8741 111.37 42.1754 110.237 40.5177L107.76 42.2101ZM113.296 52.1695C114.08 53.9069 114.802 55.6773 115.474 57.4756L118.284 56.4253C117.591 54.5722 116.844 52.7399 116.03 50.9353L113.296 52.1695ZM117.345 62.9225C117.924 64.7517 118.466 66.6017 118.985 68.4677L121.875 67.6651C121.35 65.7719 120.797 63.8868 120.205 62.0168L117.345 62.9225ZM120.471 74.0785C120.949 75.9558 121.414 77.8402 121.881 79.7305L124.793 79.0119C124.327 77.1225 123.859 75.2277 123.378 73.3381L120.471 74.0785ZM123.293 85.4035C123.532 86.3502 123.776 87.2965 124.023 88.2414L126.925 87.4803C126.68 86.545 126.439 85.607 126.201 84.6666L123.293 85.4035ZM124.023 88.2414C124.262 89.1496 124.468 90.0811 124.643 91.0329L127.594 90.4905C127.406 89.4684 127.183 88.4638 126.925 87.4803L124.023 88.2414ZM125.305 96.7521C125.405 98.6423 125.398 100.578 125.285 102.538L128.28 102.711C128.399 100.645 128.407 98.5991 128.301 96.5937L125.305 96.7521ZM124.661 108.305C124.36 110.206 123.965 112.108 123.479 113.994L126.385 114.742C126.894 112.765 127.308 110.769 127.624 108.774L124.661 108.305ZM121.766 119.544C121.106 121.37 120.358 123.16 119.526 124.895L122.232 126.192C123.108 124.364 123.894 122.482 124.587 120.564L121.766 119.544ZM116.75 129.974C115.723 131.627 114.612 133.202 113.42 134.679L115.754 136.564C117.028 134.985 118.211 133.309 119.299 131.556L116.75 129.974ZM109.518 138.879C108.107 140.19 106.615 141.372 105.044 142.406L106.694 144.912C108.413 143.781 110.036 142.493 111.56 141.077L109.518 138.879ZM100.049 145.065C99.1807 145.424 98.2935 145.741 97.3872 146.013L98.2493 148.886C99.254 148.585 100.236 148.234 101.196 147.837L100.049 145.065ZM97.3872 146.013C96.3771 146.316 95.374 146.571 94.3803 146.779L94.9948 149.715C96.0729 149.489 97.1586 149.214 98.2493 148.886L97.3872 146.013ZM88.2596 147.488C86.1452 147.532 84.1011 147.36 82.1525 146.992L81.5962 149.94C83.7535 150.347 86.005 150.535 88.3218 150.487L88.2596 147.488ZM76.334 145.197C74.4466 144.363 72.7043 143.316 71.139 142.082L69.2811 144.437C71.0495 145.832 73.0094 147.008 75.1213 147.941L76.334 145.197ZM66.9427 137.753C65.7645 136.153 64.7933 134.383 64.0632 132.464L61.2593 133.531C62.0863 135.704 63.1883 137.714 64.5269 139.532L66.9427 137.753ZM62.6601 126.576C62.4487 124.644 62.4504 122.604 62.6928 120.471L59.7119 120.132C59.4454 122.478 59.4414 124.741 59.6779 126.903L62.6601 126.576ZM63.9675 114.446C64.2635 113.48 64.6068 112.5 64.9995 111.507L62.2097 110.404C61.7886 111.469 61.4189 112.524 61.0992 113.567L63.9675 114.446ZM64.9995 111.507C65.3712 110.567 65.7625 109.667 66.1725 108.806L63.464 107.516C63.0237 108.44 62.6053 109.403 62.2097 110.404L64.9995 111.507ZM69.0226 103.842C70.1621 102.192 71.395 100.739 72.71 99.4668L70.6238 97.3109C69.1611 98.7264 67.8013 100.332 66.5541 102.137L69.0226 103.842ZM77.1744 95.9963C78.7926 95.002 80.5054 94.1964 82.3028 93.5636L81.3065 90.7338C79.3186 91.4337 77.4121 92.3292 75.6039 93.4402L77.1744 95.9963ZM87.8508 92.1821C89.7103 91.8899 91.6383 91.7405 93.6254 91.7217L93.597 88.7219C91.4785 88.7419 89.4034 88.9014 87.3851 89.2185L87.8508 92.1821ZM99.4385 92.0113C101.343 92.2104 103.285 92.5079 105.258 92.8937L105.834 89.9495C103.783 89.5483 101.752 89.2367 99.7503 89.0276L99.4385 92.0113ZM110.993 94.2345C112.869 94.7406 114.761 95.3135 116.663 95.9446L117.608 93.0972C115.657 92.4499 113.71 91.8602 111.774 91.3381L110.993 94.2345ZM122.259 97.9521C124.094 98.6579 125.931 99.4088 127.763 100.197L128.949 97.4409C127.083 96.6387 125.21 95.873 123.336 95.1521L122.259 97.9521ZM133.196 102.643C134.997 103.489 136.786 104.364 138.558 105.258L139.91 102.58C138.115 101.674 136.3 100.787 134.472 99.9282L133.196 102.643ZM143.854 108.016C145.628 108.967 147.378 109.931 149.096 110.899L150.569 108.285C148.834 107.308 147.066 106.333 145.271 105.372L143.854 108.016ZM154.277 113.883C156.033 114.916 157.746 115.944 159.407 116.956L160.968 114.394C159.295 113.375 157.569 112.339 155.797 111.297L154.277 113.883ZM164.511 120.113C166.279 121.222 167.968 122.296 169.568 123.319L171.185 120.793C169.58 119.765 167.883 118.686 166.105 117.571L164.511 120.113ZM174.599 126.558C175.484 127.129 176.328 127.672 177.125 128.184L178.745 125.659C177.951 125.149 177.11 124.608 176.226 124.037L174.599 126.558ZM177.125 128.184C177.954 128.716 178.793 129.219 179.642 129.695L181.109 127.078C180.312 126.631 179.524 126.158 178.745 125.659L177.125 128.184ZM184.918 132.253C186.734 133.004 188.581 133.643 190.453 134.175L191.273 131.289C189.51 130.788 187.771 130.187 186.065 129.481L184.918 132.253ZM196.162 135.459C198.084 135.783 200.021 136.003 201.967 136.126L202.156 133.132C200.31 133.015 198.476 132.806 196.66 132.501L196.162 135.459ZM207.798 136.209C209.735 136.144 211.672 135.989 213.603 135.749L213.233 132.772C211.388 133.001 209.541 133.149 207.698 133.211L207.798 136.209ZM219.338 134.785C221.23 134.384 223.109 133.905 224.967 133.353L224.113 130.477C222.329 131.007 220.528 131.466 218.717 131.85L219.338 134.785ZM230.463 131.485C232.27 130.793 234.05 130.032 235.798 129.208L234.517 126.495C232.837 127.287 231.126 128.019 229.389 128.684L230.463 131.485ZM240.948 126.538C241.79 126.061 242.622 125.569 243.444 125.062L241.868 122.509C241.079 122.996 240.279 123.469 239.469 123.928L240.948 126.538ZM243.444 125.062C244.26 124.558 245.065 124.038 245.858 123.502L244.179 121.016C243.419 121.529 242.649 122.027 241.868 122.509L243.444 125.062ZM250.484 120.098C251.98 118.903 253.428 117.649 254.825 116.344L252.777 114.152C251.435 115.405 250.046 116.608 248.611 117.754L250.484 120.098ZM258.867 112.274C260.164 110.869 261.408 109.416 262.598 107.922L260.251 106.053C259.105 107.491 257.908 108.889 256.662 110.241L258.867 112.274ZM266.006 103.316C266.547 102.528 267.074 101.731 267.586 100.926L265.055 99.3155C264.561 100.091 264.054 100.859 263.533 101.618L266.006 103.316ZM267.586 100.926C268.001 100.274 268.451 99.6043 268.882 98.9862L266.421 97.2702C265.97 97.9168 265.497 98.6216 265.055 99.3155L267.586 100.926ZM267.789 95.8832C267.487 96.3631 267.065 97.0129 266.498 97.8632L268.994 99.5272C269.569 98.6646 270.008 97.9905 270.329 97.4797L267.789 95.8832Z" fill="black"/>
</svg>