<svg width="651" height="185" viewBox="0 0 651 185" fill="none" xmlns="http://www.w3.org/2000/svg">
<path d="M1.66032 176.846C0.834899 176.776 0.222972 176.049 0.293538 175.224C0.364103 174.398 1.09044 173.786 1.91586 173.857L1.66032 176.846ZM186.009 169.168L185.498 167.758L186.009 169.168ZM237.733 143.55L237.031 142.224L237.733 143.55ZM292.291 77.4742L293.618 78.1724L292.291 77.4742ZM223.562 3.6244L223.34 5.10789L223.562 3.6244ZM138.537 48.853L137.361 49.7848L138.537 48.853ZM422.662 29.0655L422.205 27.6368L422.662 29.0655ZM583.502 32.9523L583.06 34.386L583.502 32.9523ZM642.311 62.2802L641.385 63.4608L642.311 62.2802ZM644.955 65.2481C644.291 64.7518 644.156 63.8118 644.652 63.1484C645.148 62.4851 646.088 62.3496 646.752 62.8458L644.955 65.2481ZM4.82709 174.109C5.65238 174.181 6.263 174.908 6.19095 175.733C6.11891 176.559 5.39147 177.169 4.56618 177.097L4.82709 174.109ZM10.3516 177.612C9.52651 177.537 8.91814 176.808 8.99274 175.983C9.06734 175.158 9.79665 174.549 10.6217 174.624L10.3516 177.612ZM16.413 175.155C17.2379 175.231 17.8445 175.962 17.768 176.787C17.6914 177.612 16.9606 178.218 16.1357 178.142L16.413 175.155ZM21.9196 178.684C21.0948 178.606 20.4894 177.874 20.5673 177.049C20.6452 176.225 21.3769 175.619 22.2017 175.697L21.9196 178.684ZM27.9884 176.246C28.8131 176.325 29.4179 177.057 29.3394 177.882C29.2608 178.707 28.5286 179.312 27.7039 179.233L27.9884 176.246ZM33.4922 179.784C32.6675 179.706 32.0625 178.974 32.141 178.149C32.2195 177.324 32.9516 176.719 33.7763 176.798L33.4922 179.784ZM39.5654 177.346C40.3902 177.424 40.9959 178.155 40.9184 178.98C40.8408 179.805 40.1093 180.411 39.2845 180.333L39.5654 177.346ZM45.0784 180.872C44.2535 180.796 43.6462 180.066 43.7221 179.241C43.7979 178.416 44.5282 177.809 45.3531 177.885L45.0784 180.872ZM51.14 178.408C51.9652 178.481 52.5748 179.21 52.5016 180.035C52.4284 180.86 51.7001 181.47 50.8749 181.396L51.14 178.408ZM56.6746 181.899C55.8491 181.829 55.2364 181.104 55.3059 180.278C55.3755 179.453 56.1011 178.84 56.9266 178.909L56.6746 181.899ZM62.7136 179.381C63.5394 179.446 64.1563 180.168 64.0914 180.994C64.0264 181.82 63.3043 182.437 62.4784 182.372L62.7136 179.381ZM68.2867 182.809C67.4604 182.75 66.8386 182.032 66.8978 181.206C66.957 180.38 67.6748 179.758 68.5011 179.817L68.2867 182.809ZM74.2897 180.208C75.1164 180.261 75.7442 180.973 75.6919 181.8C75.6395 182.627 74.9269 183.255 74.1001 183.202L74.2897 180.208ZM79.9187 183.543C79.0915 183.499 78.4568 182.792 78.5011 181.965C78.5454 181.138 79.2519 180.503 80.0792 180.547L79.9187 183.543ZM85.8696 180.826C86.6973 180.861 87.3399 181.56 87.3048 182.388C87.2698 183.215 86.5704 183.858 85.7427 183.823L85.8696 180.826ZM91.5718 184.033C90.7437 184.009 90.0923 183.318 90.1168 182.49C90.1414 181.661 90.8325 181.01 91.6606 181.035L91.5718 184.033ZM97.4515 181.166C98.2799 181.178 98.941 181.86 98.9283 182.689C98.9155 183.517 98.2337 184.178 97.4054 184.165L97.4515 181.166ZM103.243 184.21C102.414 184.21 101.742 183.539 101.742 182.71C101.742 181.882 102.413 181.21 103.242 181.21L103.243 184.21ZM109.029 181.158C109.858 181.144 110.541 181.803 110.555 182.632C110.57 183.46 109.91 184.143 109.082 184.158L109.029 181.158ZM114.923 184.001C114.095 184.031 113.4 183.384 113.369 182.556C113.339 181.728 113.986 181.033 114.814 181.003L114.923 184.001ZM120.592 180.734C121.419 180.687 122.127 181.32 122.174 182.147C122.221 182.974 121.589 183.683 120.762 183.729L120.592 180.734ZM126.595 183.336C125.769 183.401 125.047 182.784 124.982 181.958C124.918 181.132 125.535 180.41 126.361 180.346L126.595 183.336ZM132.117 179.829C132.942 179.746 133.677 180.346 133.761 181.17C133.844 181.995 133.244 182.73 132.42 182.814L132.117 179.829ZM138.232 182.156C137.41 182.259 136.66 181.676 136.557 180.854C136.454 180.032 137.037 179.282 137.859 179.179L138.232 182.156ZM143.581 178.389C144.4 178.266 145.164 178.83 145.287 179.649C145.411 180.468 144.847 181.232 144.028 181.356L143.581 178.389ZM149.803 180.41C148.987 180.554 148.208 180.01 148.064 179.194C147.92 178.378 148.464 177.6 149.28 177.456L149.803 180.41ZM154.952 176.375C155.763 176.209 156.556 176.733 156.721 177.544C156.887 178.356 156.363 179.148 155.552 179.314L154.952 176.375ZM161.271 178.067C160.464 178.254 159.658 177.752 159.47 176.945C159.283 176.138 159.785 175.332 160.592 175.144L161.271 178.067ZM166.198 173.764C167 173.555 167.819 174.036 168.028 174.837C168.237 175.639 167.756 176.458 166.954 176.667L166.198 173.764ZM172.599 175.115C171.803 175.345 170.971 174.887 170.741 174.091C170.51 173.295 170.969 172.464 171.764 172.233L172.599 175.115ZM177.288 170.554C178.078 170.303 178.921 170.739 179.173 171.528C179.424 172.317 178.988 173.161 178.199 173.412L177.288 170.554ZM183.752 171.562C182.969 171.834 182.114 171.421 181.842 170.638C181.57 169.856 181.983 169.001 182.766 168.729L183.752 171.562ZM188.191 166.759C188.966 166.465 189.832 166.855 190.125 167.63C190.419 168.405 190.029 169.271 189.254 169.564L188.191 166.759ZM194.667 167.421C193.902 167.737 193.025 167.373 192.708 166.607C192.392 165.842 192.756 164.965 193.522 164.648L194.667 167.421ZM198.788 162.38C199.544 162.041 200.431 162.379 200.77 163.135C201.109 163.891 200.771 164.779 200.015 165.117L198.788 162.38ZM205.292 162.661C204.546 163.021 203.649 162.708 203.289 161.962C202.929 161.216 203.242 160.319 203.989 159.959L205.292 162.661ZM209.128 157.4C209.865 157.022 210.769 157.314 211.147 158.051C211.525 158.788 211.234 159.692 210.497 160.07L209.128 157.4ZM215.637 157.37C214.907 157.762 213.998 157.487 213.606 156.757C213.214 156.027 213.489 155.118 214.219 154.726L215.637 157.37ZM219.277 151.97C220.003 151.57 220.915 151.834 221.315 152.559C221.715 153.284 221.452 154.197 220.726 154.597L219.277 151.97ZM225.785 151.791C225.061 152.193 224.147 151.933 223.744 151.209C223.342 150.485 223.602 149.572 224.326 149.169L225.785 151.791ZM229.384 146.364C230.11 145.964 231.022 146.228 231.422 146.953C231.822 147.679 231.558 148.591 230.832 148.991L229.384 146.364ZM235.892 146.233C235.162 146.625 234.253 146.352 233.86 145.622C233.468 144.893 233.741 143.983 234.47 143.591L235.892 146.233ZM239.75 140.742C240.472 140.337 241.387 140.593 241.792 141.315C242.198 142.038 241.942 142.952 241.219 143.358L239.75 140.742ZM246.662 140.104C245.963 140.549 245.036 140.343 244.591 139.644C244.147 138.945 244.353 138.018 245.052 137.573L246.662 140.104ZM250.152 134.112C250.823 133.626 251.761 133.777 252.247 134.448C252.733 135.119 252.583 136.056 251.912 136.542L250.152 134.112ZM256.933 132.656C256.295 133.184 255.349 133.095 254.821 132.457C254.293 131.819 254.382 130.873 255.02 130.345L256.933 132.656ZM259.622 126.267C260.223 125.696 261.172 125.721 261.743 126.322C262.313 126.923 262.289 127.872 261.688 128.442L259.622 126.267ZM266.141 123.911C265.581 124.522 264.632 124.563 264.021 124.003C263.411 123.443 263.369 122.495 263.929 121.884L266.141 123.911ZM267.931 117.207C268.448 116.56 269.392 116.454 270.039 116.971C270.686 117.488 270.792 118.432 270.275 119.079L267.931 117.207ZM274.076 113.995C273.601 114.674 272.665 114.839 271.987 114.363C271.308 113.888 271.143 112.953 271.618 112.274L274.076 113.995ZM275.013 107.122C275.45 106.418 276.375 106.202 277.079 106.64C277.783 107.077 277.999 108.002 277.561 108.705L275.013 107.122ZM280.772 103.26C280.367 103.982 279.452 104.239 278.73 103.833C278.007 103.428 277.751 102.513 278.156 101.791L280.772 103.26ZM281.103 96.3285C281.486 95.5938 282.391 95.3083 283.126 95.6909C283.861 96.0736 284.146 96.9794 283.764 97.7142L281.103 96.3285ZM286.61 92.115C286.24 92.8562 285.339 93.1574 284.598 92.7875C283.856 92.4177 283.555 91.5169 283.925 90.7756L286.61 92.115ZM286.702 85.1753C287.07 84.433 287.97 84.1296 288.712 84.4976C289.454 84.8656 289.758 85.7655 289.39 86.5078L286.702 85.1753ZM292.187 80.9342C291.81 81.6718 290.906 81.9641 290.169 81.587C289.431 81.2099 289.139 80.3063 289.516 79.5686L292.187 80.9342ZM292.126 74.2796C292.44 73.5127 293.316 73.145 294.082 73.4584C294.849 73.7717 295.217 74.6474 294.904 75.4143L292.126 74.2796ZM296.648 69.5938C296.488 70.4065 295.699 70.935 294.886 70.7742C294.073 70.6135 293.545 69.8243 293.705 69.0117L296.648 69.5938ZM294.27 63.5277C294.28 62.6993 294.96 62.0361 295.788 62.0463C296.617 62.0565 297.28 62.7363 297.27 63.5647L294.27 63.5277ZM296.834 57.5432C296.961 58.3618 296.4 59.1283 295.582 59.255C294.763 59.3818 293.996 58.8209 293.87 58.0022L296.834 57.5432ZM292.607 52.5765C292.362 51.7852 292.805 50.945 293.596 50.6998C294.387 50.4547 295.227 50.8975 295.473 51.6888L292.607 52.5765ZM293.329 46.0995C293.674 46.8528 293.343 47.743 292.59 48.0877C291.836 48.4325 290.946 48.1013 290.601 47.3481L293.329 46.0995ZM287.967 42.376C287.539 41.6667 287.768 40.7447 288.477 40.3168C289.186 39.889 290.108 40.1172 290.536 40.8265L287.967 42.376ZM287.207 35.8978C287.704 36.5605 287.569 37.5007 286.907 37.9978C286.244 38.495 285.304 38.3608 284.807 37.6981L287.207 35.8978ZM281.211 33.3382C280.656 32.7232 280.704 31.7747 281.319 31.2197C281.934 30.6646 282.883 30.7132 283.438 31.3282L281.211 33.3382ZM279.289 27.1012C279.893 27.6683 279.922 28.6176 279.355 29.2215C278.788 29.8253 277.839 29.855 277.235 29.2878L279.289 27.1012ZM272.949 25.5611C272.304 25.0413 272.203 24.097 272.723 23.452C273.242 22.8069 274.187 22.7055 274.832 23.2253L272.949 25.5611ZM270.108 19.6871C270.788 20.1604 270.955 21.0953 270.482 21.7752C270.008 22.4551 269.074 22.6226 268.394 22.1493L270.108 19.6871ZM263.615 19.0528C262.906 18.6251 262.677 17.7032 263.105 16.9937C263.533 16.2843 264.455 16.0559 265.164 16.4836L263.615 19.0528ZM260.02 13.5968C260.754 13.9799 261.039 14.886 260.656 15.6205C260.273 16.355 259.367 16.6399 258.632 16.2567L260.02 13.5968ZM253.506 13.7713C252.75 13.4315 252.413 12.5436 252.753 11.788C253.093 11.0325 253.981 10.6954 254.736 11.0352L253.506 13.7713ZM249.31 8.77448C250.083 9.07199 250.468 9.93994 250.171 10.7131C249.873 11.4863 249.005 11.8718 248.232 11.5743L249.31 8.77448ZM242.837 9.66087C242.049 9.40445 241.618 8.558 241.875 7.77025C242.131 6.9825 242.977 6.55177 243.765 6.80818L242.837 9.66087ZM238.139 5.13281C238.939 5.34941 239.411 6.17322 239.195 6.97282C238.978 7.77243 238.154 8.24506 237.355 8.02844L238.139 5.13281ZM231.802 6.66702C230.993 6.48894 230.481 5.68869 230.659 4.87962C230.837 4.07057 231.638 3.55907 232.447 3.73717L231.802 6.66702ZM226.694 2.60947C227.51 2.75029 228.058 3.52626 227.917 4.34264C227.776 5.159 227.001 5.70663 226.184 5.5658L226.694 2.60947ZM220.329 4.6841C219.508 4.57576 218.93 3.82211 219.038 3.00081C219.147 2.17949 219.9 1.60153 220.722 1.70987L220.329 4.6841ZM214.595 1.00978C215.42 1.08945 216.024 1.82251 215.944 2.64709C215.864 3.47168 215.131 4.07555 214.307 3.99586L214.595 1.00978ZM208.266 3.51949C207.439 3.46902 206.81 2.7578 206.86 1.93091C206.911 1.10402 207.622 0.474594 208.449 0.525055L208.266 3.51949ZM202.291 0.26059C203.119 0.281067 203.774 0.969025 203.753 1.79721C203.733 2.62538 203.045 3.28015 202.217 3.25967L202.291 0.26059ZM196.155 3.22295C195.326 3.2336 194.646 2.57071 194.636 1.74236C194.625 0.913986 195.288 0.233841 196.116 0.22319L196.155 3.22295ZM189.939 0.423157C190.767 0.379913 191.472 1.01553 191.516 1.84282C191.559 2.67012 190.923 3.37582 190.096 3.41907L189.939 0.423157ZM184.059 3.85968C183.234 3.93742 182.502 3.33182 182.425 2.50705C182.347 1.68228 182.953 0.950653 183.777 0.872925L184.059 3.85968ZM177.645 1.58835C178.466 1.4736 179.224 2.04568 179.339 2.86613C179.453 3.68657 178.881 4.44469 178.061 4.55943L177.645 1.58835ZM172.096 5.54216C171.283 5.6974 170.497 5.16359 170.342 4.34984C170.186 3.53609 170.72 2.75056 171.534 2.59531L172.096 5.54216ZM165.475 3.92365C166.279 3.72327 167.093 4.21246 167.293 5.0163C167.493 5.82011 167.004 6.63419 166.2 6.83456L165.475 3.92365ZM160.421 8.46875C159.632 8.72038 158.788 8.28452 158.537 7.49524C158.285 6.70595 158.721 5.86212 159.51 5.61049L160.421 8.46875ZM153.638 7.72723C154.406 7.41547 155.281 7.78493 155.593 8.55244C155.904 9.31998 155.535 10.1949 154.767 10.5067L153.638 7.72723ZM149.347 13.0047C148.613 13.3886 147.707 13.1047 147.323 12.3706C146.939 11.6364 147.223 10.7301 147.957 10.3463L149.347 13.0047ZM142.566 13.5881C143.247 13.1156 144.181 13.2842 144.654 13.9647C145.126 14.6451 144.958 15.5798 144.277 16.0523L142.566 13.5881ZM139.757 19.766C139.167 20.3478 138.218 20.3414 137.636 19.7517C137.054 19.162 137.06 18.2123 137.65 17.6305L139.757 19.766ZM133.597 22.6692C134.03 21.9629 134.953 21.7413 135.659 22.1742C136.366 22.6071 136.587 23.5307 136.154 24.237L133.597 22.6692ZM133.995 29.4085C133.807 30.2153 133.001 30.7168 132.194 30.5287C131.387 30.3406 130.886 29.5341 131.074 28.7273L133.995 29.4085ZM130.711 35.3129C130.616 34.4899 131.206 33.7458 132.029 33.6509C132.852 33.556 133.596 34.1462 133.691 34.9692L130.711 35.3129ZM135.163 40.4374C135.482 41.2018 135.121 42.0804 134.357 42.3996C133.593 42.7189 132.714 42.358 132.395 41.5936L135.163 40.4374ZM135.473 47.214C135.009 46.5278 135.189 45.5952 135.875 45.1311C136.561 44.667 137.494 44.847 137.958 45.5332L135.473 47.214ZM141.569 50.1243C142.122 50.7416 142.069 51.6899 141.452 52.2424C140.835 52.795 139.886 52.7425 139.334 52.1252L141.569 50.1243ZM143.659 56.4241C143.039 55.8746 142.982 54.9266 143.531 54.3066C144.08 53.6866 145.028 53.6294 145.648 54.1788L143.659 56.4241ZM150.175 57.7679C150.85 58.2476 151.009 59.184 150.529 59.8594C150.05 60.5349 149.113 60.6936 148.438 60.214L150.175 57.7679ZM153.563 63.4845C152.844 63.0727 152.595 62.1561 153.007 61.4373C153.419 60.7185 154.335 60.4697 155.054 60.8815L153.563 63.4845ZM160.197 63.5358C160.948 63.8846 161.275 64.7765 160.926 65.5279C160.577 66.2794 159.685 66.6058 158.934 66.257L160.197 63.5358ZM164.504 68.5866C163.729 68.2953 163.336 67.4305 163.628 66.655C163.919 65.8794 164.784 65.4869 165.559 65.7781L164.504 68.5866ZM171.1 67.6487C171.893 67.8883 172.341 68.7254 172.102 69.5184C171.862 70.3114 171.025 70.76 170.232 70.5204L171.1 67.6487ZM176.063 72.0972C175.258 71.9035 174.762 71.0935 174.956 70.2881C175.149 69.4826 175.959 68.9867 176.765 69.1804L176.063 72.0972ZM182.465 70.3989C183.279 70.5523 183.815 71.3366 183.662 72.1507C183.508 72.9648 182.724 73.5004 181.91 73.347L182.465 70.3989ZM187.833 74.3259C187.013 74.2085 186.443 73.4484 186.561 72.6284C186.678 71.8083 187.438 71.2388 188.258 71.3562L187.833 74.3259ZM194.128 72.0782C194.952 72.1636 195.551 72.9008 195.466 73.7248C195.38 74.5488 194.643 75.1476 193.819 75.0622L194.128 72.0782ZM199.745 75.5723C198.919 75.5151 198.295 74.7987 198.353 73.9723C198.41 73.1458 199.126 72.5222 199.952 72.5794L199.745 75.5723ZM205.84 72.8943C206.668 72.926 207.313 73.6229 207.282 74.4507C207.25 75.2785 206.553 75.9238 205.725 75.8921L205.84 72.8943ZM211.717 76.0376C210.888 76.0287 210.224 75.35 210.233 74.5216C210.242 73.6932 210.921 73.0289 211.749 73.0377L211.717 76.0376ZM217.625 73.0266C218.453 73.0149 219.134 73.6769 219.146 74.5053C219.158 75.3336 218.496 76.0146 217.667 76.0263L217.625 73.0266ZM223.659 75.8729C222.831 75.9034 222.135 75.2569 222.105 74.429C222.074 73.6012 222.721 72.9054 223.549 72.8749L223.659 75.8729ZM229.43 72.5975C230.257 72.5501 230.966 73.1822 231.014 74.0092C231.061 74.8363 230.429 75.5452 229.602 75.5926L229.43 72.5975ZM235.557 75.1943C234.731 75.2573 234.01 74.6387 233.948 73.8126C233.885 72.9866 234.503 72.2659 235.329 72.203L235.557 75.1943ZM241.224 71.7018C242.049 71.6245 242.78 72.2306 242.857 73.0554C242.935 73.8802 242.329 74.6115 241.504 74.6887L241.224 71.7018ZM247.424 74.0862C246.601 74.1765 245.86 73.5822 245.77 72.7587C245.679 71.9352 246.273 71.1944 247.097 71.1041L247.424 74.0862ZM252.989 70.4129C253.811 70.3104 254.56 70.8937 254.663 71.7158C254.765 72.5378 254.182 73.2873 253.36 73.3899L252.989 70.4129ZM259.249 72.614C258.429 72.7277 257.671 72.1547 257.557 71.3342C257.444 70.5136 258.017 69.7562 258.837 69.6424L259.249 72.614ZM264.706 68.7901C265.525 68.6659 266.29 69.2292 266.414 70.0482C266.538 70.8673 265.975 71.632 265.156 71.7562L264.706 68.7901ZM271.027 70.8295C270.21 70.9635 269.438 70.4093 269.304 69.5918C269.17 68.7743 269.724 68.0029 270.542 67.869L271.027 70.8295ZM276.384 66.8776C277.2 66.7346 277.978 67.28 278.121 68.096C278.264 68.912 277.718 69.6895 276.902 69.8326L276.384 66.8776ZM282.756 68.774C281.942 68.9256 281.159 68.3883 281.007 67.5739C280.855 66.7595 281.393 65.9763 282.207 65.8247L282.756 68.774ZM288.026 64.7114C288.839 64.5517 289.627 65.0813 289.787 65.8942C289.946 66.7071 289.417 67.4955 288.604 67.6551L288.026 64.7114ZM294.436 66.4812C293.625 66.6484 292.832 66.1262 292.665 65.3148C292.497 64.5034 293.02 63.7101 293.831 63.5429L294.436 66.4812ZM299.629 62.3213C300.439 62.147 301.237 62.6623 301.411 63.4721C301.586 64.282 301.07 65.0799 300.26 65.2542L299.629 62.3213ZM306.068 63.9788C305.26 64.1598 304.458 63.6512 304.277 62.8428C304.096 62.0343 304.604 61.2323 305.413 61.0512L306.068 63.9788ZM311.194 59.7326C312.001 59.5453 312.807 60.0476 312.995 60.8545C313.182 61.6615 312.68 62.4675 311.873 62.6549L311.194 59.7326ZM317.653 61.2901C316.847 61.4835 316.037 60.9872 315.844 60.1816C315.651 59.3761 316.147 58.5663 316.952 58.373L317.653 61.2901ZM322.721 56.9666C323.525 56.7675 324.338 57.2581 324.537 58.0622C324.736 58.8664 324.246 59.6796 323.442 59.8787L322.721 56.9666ZM329.196 58.4338C328.393 58.6382 327.576 58.1532 327.372 57.3503C327.168 56.5475 327.653 55.731 328.455 55.5266L329.196 58.4338ZM334.209 54.0416C335.011 53.832 335.831 54.3119 336.04 55.1134C336.25 55.9149 335.77 56.7345 334.968 56.944L334.209 54.0416ZM340.708 55.4246C339.908 55.6391 339.085 55.1642 338.871 54.364C338.656 53.5638 339.131 52.7413 339.931 52.5269L340.708 55.4246ZM345.659 50.9744C346.458 50.7554 347.283 51.2255 347.502 52.0245C347.721 52.8234 347.251 53.6486 346.452 53.8677L345.659 50.9744ZM352.184 52.2792C351.387 52.5026 350.559 52.037 350.335 51.2392C350.112 50.4415 350.578 49.6137 351.375 49.3903L352.184 52.2792ZM357.066 47.7808C357.862 47.5533 358.693 48.0146 358.92 48.8112C359.148 49.6077 358.686 50.4379 357.89 50.6654L357.066 47.7808ZM363.623 49.0124C362.828 49.2438 361.995 48.7866 361.764 47.9911C361.533 47.1957 361.99 46.3633 362.785 46.1318L363.623 49.0124ZM368.446 44.4704C369.241 44.2353 370.075 44.6886 370.31 45.483C370.545 46.2773 370.092 47.1119 369.298 47.347L368.446 44.4704ZM375.018 45.6403C374.224 45.8789 373.388 45.4292 373.149 44.6358C372.911 43.8425 373.36 43.006 374.154 42.7674L375.018 45.6403ZM379.833 41.0467C380.625 40.8049 381.464 41.2513 381.705 42.0436C381.947 42.836 381.501 43.6743 380.709 43.9161L379.833 41.0467ZM386.35 42.1831C385.558 42.4278 384.718 41.9846 384.474 41.1931C384.229 40.4017 384.672 39.5617 385.464 39.317L386.35 42.1831ZM391.171 37.5414C391.961 37.2939 392.803 37.7343 393.05 38.5249C393.298 39.3155 392.857 40.157 392.067 40.4044L391.171 37.5414ZM397.736 38.6209C396.946 38.8706 396.103 38.4328 395.854 37.6429C395.604 36.853 396.042 36.0102 396.832 35.7605L397.736 38.6209ZM402.445 33.9778C403.234 33.7261 404.078 34.1619 404.33 34.9512C404.581 35.7405 404.146 36.5844 403.356 36.836L402.445 33.9778ZM409.033 35.02C408.244 35.2731 407.4 34.8388 407.147 34.0499C406.893 33.2611 407.328 32.4165 408.117 32.1634L409.033 35.02ZM413.795 30.3386C414.583 30.0849 415.428 30.5185 415.682 31.3071C415.936 32.0957 415.502 32.9407 414.714 33.1944L413.795 30.3386ZM420.375 31.3739C419.586 31.6271 418.742 31.193 418.488 30.4043C418.235 29.6155 418.669 28.7708 419.458 28.5175L420.375 31.3739ZM425.007 26.7674C425.8 26.5287 426.637 26.9783 426.875 27.7716C427.114 28.5649 426.664 29.4015 425.871 29.6402L425.007 26.7674ZM431.431 28.0683C430.63 28.2806 429.809 27.8035 429.597 27.0028C429.385 26.202 429.862 25.3808 430.662 25.1685L431.431 28.0683ZM436.365 23.7524C437.172 23.5651 437.978 24.0676 438.165 24.8745C438.352 25.6815 437.85 26.4875 437.043 26.6748L436.365 23.7524ZM442.691 25.4519C441.879 25.6154 441.088 25.0896 440.925 24.2775C440.761 23.4654 441.287 22.6745 442.099 22.5109L442.691 25.4519ZM447.865 21.4335C448.681 21.2925 449.457 21.84 449.598 22.6563C449.739 23.4726 449.192 24.2487 448.375 24.3897L447.865 21.4335ZM454.09 23.4804C453.27 23.6 452.508 23.0323 452.389 22.2126C452.269 21.3928 452.837 20.6314 453.657 20.5118L454.09 23.4804ZM459.469 19.7386C460.291 19.6396 461.039 20.226 461.138 21.0485C461.237 21.871 460.65 22.618 459.828 22.7171L459.469 19.7386ZM465.585 22.0934C464.761 22.1729 464.028 21.5689 463.948 20.7443C463.869 19.9197 464.473 19.1867 465.297 19.1072L465.585 22.0934ZM471.137 18.6114C471.963 18.5507 472.682 19.1712 472.743 19.9974C472.804 20.8236 472.183 21.5426 471.357 21.6034L471.137 18.6114ZM477.14 21.2419C476.313 21.2846 475.608 20.6485 475.565 19.8212C475.522 18.9939 476.158 18.2886 476.986 18.2458L477.14 21.2419ZM482.837 18.0056C483.665 17.9803 484.357 18.631 484.382 19.459C484.408 20.287 483.757 20.9789 482.929 21.0042L482.837 18.0056ZM488.722 20.886C487.894 20.8945 487.216 20.2299 487.207 19.4016C487.199 18.5732 487.863 17.8947 488.692 17.8862L488.722 20.886ZM494.547 17.8837C495.375 17.8915 496.04 18.5693 496.033 19.3977C496.025 20.2261 495.347 20.8914 494.519 20.8836L494.547 17.8837ZM500.315 20.9937C499.487 20.9701 498.835 20.2796 498.858 19.4515C498.882 18.6234 499.572 17.9713 500.401 17.9949L500.315 20.9937ZM506.251 18.2169C507.078 18.256 507.717 18.9586 507.678 19.7861C507.639 20.6136 506.936 21.2527 506.109 21.2136L506.251 18.2169ZM511.898 21.5408C511.072 21.4865 510.445 20.7723 510.5 19.9457C510.554 19.119 511.268 18.4929 512.095 18.5472L511.898 21.5408ZM517.932 18.9839C518.757 19.0531 519.37 19.7785 519.301 20.604C519.232 21.4295 518.506 22.0426 517.681 21.9734L517.932 18.9839ZM523.455 22.5098C522.631 22.4258 522.031 21.6896 522.115 20.8654C522.199 20.0413 522.935 19.4412 523.759 19.5252L523.455 22.5098ZM529.575 20.1701C530.397 20.2687 530.984 21.0154 530.886 21.8379C530.787 22.6605 530.04 23.2474 529.218 23.1488L529.575 20.1701ZM534.97 23.8899C534.15 23.7768 533.576 23.0198 533.689 22.1991C533.802 21.3785 534.559 20.8049 535.38 20.918L534.97 23.8899ZM541.172 21.7686C541.99 21.8963 542.55 22.6633 542.422 23.4818C542.295 24.3004 541.528 24.8605 540.709 24.7328L541.172 21.7686ZM546.432 25.6775C545.616 25.5353 545.07 24.7584 545.212 23.9423C545.354 23.1261 546.131 22.5798 546.947 22.722L546.432 25.6775ZM552.705 23.7788C553.518 23.9357 554.05 24.7223 553.893 25.5357C553.737 26.3492 552.95 26.8814 552.136 26.7245L552.705 23.7788ZM557.819 27.8747C557.009 27.7029 556.491 26.9067 556.663 26.0962C556.835 25.2858 557.631 24.7681 558.442 24.9399L557.819 27.8747ZM564.155 26.207C564.962 26.394 565.465 27.1998 565.278 28.0068C565.091 28.8139 564.285 29.3166 563.478 29.1296L564.155 26.207ZM569.109 30.4911C568.306 30.2886 567.819 29.4733 568.021 28.67C568.224 27.8667 569.039 27.3796 569.842 27.5821L569.109 30.4911ZM575.51 29.0706C576.309 29.2892 576.78 30.1141 576.561 30.9132C576.343 31.7123 575.518 32.1829 574.719 31.9644L575.51 29.0706ZM580.295 33.5514C579.501 33.3163 579.047 32.4817 579.282 31.6873C579.518 30.893 580.352 30.4396 581.146 30.6747L580.295 33.5514ZM586.587 32.3493C587.376 32.6021 587.811 33.4466 587.558 34.2355C587.305 35.0244 586.46 35.459 585.672 35.2061L586.587 32.3493ZM590.861 36.9379C590.079 36.6662 589.664 35.8116 589.936 35.0289C590.208 34.2463 591.062 33.8321 591.845 34.1038L590.861 36.9379ZM597.057 35.9851C597.833 36.276 598.226 37.1406 597.935 37.9163C597.644 38.692 596.779 39.0849 596.003 38.794L597.057 35.9851ZM601.1 40.78C600.332 40.4692 599.961 39.5948 600.272 38.8268C600.583 38.0589 601.457 37.6883 602.225 37.999L601.1 40.78ZM607.336 40.1466C608.096 40.4778 608.443 41.3618 608.112 42.1212C607.781 42.8805 606.897 43.2277 606.137 42.8965L607.336 40.1466ZM611.117 45.1506C610.367 44.7984 610.045 43.9051 610.397 43.1552C610.749 42.4054 611.643 42.0831 612.392 42.4353L611.117 45.1506ZM617.381 44.8673C618.12 45.2413 618.416 46.1437 618.042 46.8829C617.668 47.6221 616.765 47.9182 616.026 47.5442L617.381 44.8673ZM620.859 50.0825C620.131 49.6859 619.863 48.7748 620.26 48.0475C620.656 47.3202 621.568 47.052 622.295 47.4486L620.859 50.0825ZM627.13 50.187C627.844 50.6071 628.082 51.5264 627.662 52.2404C627.242 52.9545 626.322 53.1927 625.608 52.7726L627.13 50.187ZM630.261 55.6188C629.562 55.1741 629.356 54.2471 629.8 53.548C630.245 52.849 631.172 52.6428 631.871 53.0874L630.261 55.6188ZM636.508 56.1577C637.19 56.6279 637.362 57.562 636.892 58.2441C636.422 58.9261 635.488 59.0978 634.806 58.6276L636.508 56.1577ZM639.227 61.8066C638.565 61.3095 638.43 60.3693 638.928 59.7066C639.425 59.0438 640.365 58.9095 641.028 59.4066L639.227 61.8066ZM646.517 63.5479C647.191 64.0295 647.346 64.9664 646.865 65.6404C646.383 66.3144 645.446 66.4703 644.772 65.9886L646.517 63.5479ZM650.101 65.4101C650.749 65.9257 650.857 66.8693 650.341 67.5177C649.826 68.1662 648.882 68.2739 648.234 67.7583L650.101 65.4101ZM1.91586 173.857C2.88957 173.94 3.85996 174.024 4.82709 174.109L4.56618 177.097C3.60075 177.013 2.63215 176.929 1.66032 176.846L1.91586 173.857ZM10.6217 174.624C12.565 174.8 14.4953 174.977 16.413 175.155L16.1357 178.142C14.22 177.964 12.2921 177.787 10.3516 177.612L10.6217 174.624ZM22.2017 175.697C24.143 175.881 26.0718 176.064 27.9884 176.246L27.7039 179.233C25.7876 179.05 23.8597 178.867 21.9196 178.684L22.2017 175.697ZM33.7763 176.798C35.718 176.983 37.6474 177.166 39.5654 177.346L39.2845 180.333C37.3649 180.152 35.4343 179.969 33.4922 179.784L33.7763 176.798ZM45.3531 177.885C47.2933 178.063 49.222 178.238 51.14 178.408L50.8749 181.396C48.9532 181.226 47.0212 181.051 45.0784 180.872L45.3531 177.885ZM56.9266 178.909C58.866 179.073 60.7947 179.23 62.7136 179.381L62.4784 182.372C60.5533 182.221 58.619 182.063 56.6746 181.899L56.9266 178.909ZM68.5011 179.817C70.44 179.956 72.3692 180.087 74.2897 180.208L74.1001 183.202C72.1708 183.08 70.2332 182.949 68.2867 182.809L68.5011 179.817ZM80.0792 180.547C82.0175 180.651 83.9474 180.744 85.8696 180.826L85.7427 183.823C83.8086 183.741 81.8675 183.647 79.9187 183.543L80.0792 180.547ZM91.6606 181.035C93.5977 181.092 95.5277 181.136 97.4515 181.166L97.4054 184.165C95.4667 184.135 93.5224 184.091 91.5718 184.033L91.6606 181.035ZM103.242 181.21C105.176 181.209 107.105 181.192 109.029 181.158L109.082 184.158C107.14 184.192 105.194 184.209 103.243 184.21L103.242 181.21ZM114.814 181.003C116.743 180.932 118.669 180.843 120.592 180.734L120.762 183.729C118.818 183.84 116.872 183.93 114.923 184.001L114.814 181.003ZM126.361 180.346C128.281 180.195 130.2 180.023 132.117 179.829L132.42 182.814C130.479 183.011 128.538 183.184 126.595 183.336L126.361 180.346ZM137.859 179.179C139.766 178.94 141.673 178.677 143.581 178.389L144.028 181.356C142.095 181.647 140.163 181.913 138.232 182.156L137.859 179.179ZM149.28 177.456C151.168 177.121 153.059 176.761 154.952 176.375L155.552 179.314C153.633 179.706 151.717 180.071 149.803 180.41L149.28 177.456ZM160.592 175.144C162.458 174.712 164.326 174.252 166.198 173.764L166.954 176.667C165.056 177.162 163.162 177.628 161.271 178.067L160.592 175.144ZM171.764 172.233C173.601 171.702 175.442 171.142 177.288 170.554L178.199 173.412C176.327 174.009 174.461 174.576 172.599 175.115L171.764 172.233ZM182.766 168.729C183.675 168.412 184.586 168.089 185.498 167.758L186.521 170.578C185.596 170.913 184.673 171.241 183.752 171.562L182.766 168.729ZM185.498 167.758C186.41 167.427 187.308 167.094 188.191 166.759L189.254 169.564C188.358 169.904 187.447 170.242 186.521 170.578L185.498 167.758ZM193.522 164.648C195.33 163.901 197.082 163.145 198.788 162.38L200.015 165.117C198.283 165.894 196.504 166.662 194.667 167.421L193.522 164.648ZM203.989 159.959C205.737 159.116 207.445 158.263 209.128 157.4L210.497 160.07C208.795 160.943 207.064 161.807 205.292 162.661L203.989 159.959ZM214.219 154.726C215.913 153.817 217.594 152.899 219.277 151.97L220.726 154.597C219.036 155.529 217.344 156.454 215.637 157.37L214.219 154.726ZM224.326 149.169C225.991 148.243 227.673 147.307 229.384 146.364L230.832 148.991C229.127 149.931 227.45 150.864 225.785 151.791L224.326 149.169ZM234.47 143.591C235.314 143.137 236.167 142.681 237.031 142.224L238.434 144.876C237.577 145.33 236.73 145.782 235.892 146.233L234.47 143.591ZM237.031 142.224C237.957 141.735 238.863 141.241 239.75 140.742L241.219 143.358C240.31 143.869 239.382 144.375 238.434 144.876L237.031 142.224ZM245.052 137.573C246.836 136.438 248.534 135.284 250.152 134.112L251.912 136.542C250.244 137.75 248.496 138.937 246.662 140.104L245.052 137.573ZM255.02 130.345C256.64 129.005 258.171 127.645 259.622 126.267L261.688 128.442C260.187 129.867 258.605 131.272 256.933 132.656L255.02 130.345ZM263.929 121.884C265.341 120.344 266.671 118.784 267.931 117.207L270.275 119.079C268.974 120.707 267.6 122.319 266.141 123.911L263.929 121.884ZM271.618 112.274C272.81 110.573 273.937 108.855 275.013 107.122L277.561 108.705C276.459 110.48 275.302 112.245 274.076 113.995L271.618 112.274ZM278.156 101.791C279.172 99.9813 280.149 98.1597 281.103 96.3285L283.764 97.7142C282.799 99.5667 281.807 101.417 280.772 103.26L278.156 101.791ZM283.925 90.7756C284.855 88.911 285.773 87.0479 286.702 85.1753L289.39 86.5078C288.466 88.3711 287.542 90.2463 286.61 92.115L283.925 90.7756ZM289.516 79.5686C289.992 78.6372 290.474 77.7061 290.963 76.7759L293.618 78.1724C293.135 79.0908 292.659 80.0115 292.187 80.9342L289.516 79.5686ZM290.963 76.7759C291.394 75.9571 291.781 75.1245 292.126 74.2796L294.904 75.4143C294.522 76.3484 294.094 77.2684 293.618 78.1724L290.963 76.7759ZM293.705 69.0117C294.06 67.2212 294.247 65.3892 294.27 63.5277L297.27 63.5647C297.244 65.6035 297.039 67.6181 296.648 69.5938L293.705 69.0117ZM293.87 58.0022C293.592 56.2067 293.17 54.3946 292.607 52.5765L295.473 51.6888C296.077 53.6409 296.533 55.5961 296.834 57.5432L293.87 58.0022ZM290.601 47.3481C289.84 45.6837 288.961 44.0235 287.967 42.376L290.536 40.8265C291.586 42.5675 292.518 44.3279 293.329 46.0995L290.601 47.3481ZM284.807 37.6981C283.702 36.2249 282.502 34.7694 281.211 33.3382L283.438 31.3282C284.788 32.8248 286.045 34.35 287.207 35.8978L284.807 37.6981ZM277.235 29.2878C275.883 28.0178 274.454 26.7738 272.949 25.5611L274.832 23.2253C276.394 24.4846 277.88 25.7782 279.289 27.1012L277.235 29.2878ZM268.394 22.1493C266.864 21.0846 265.271 20.0511 263.615 19.0528L265.164 16.4836C266.875 17.5153 268.524 18.5845 270.108 19.6871L268.394 22.1493ZM258.632 16.2567C256.977 15.3931 255.267 14.5635 253.506 13.7713L254.736 11.0352C256.55 11.8511 258.312 12.706 260.02 13.5968L258.632 16.2567ZM248.232 11.5743C246.479 10.8997 244.68 10.261 242.837 9.66087L243.765 6.80818C245.659 7.42447 247.507 8.08078 249.31 8.77448L248.232 11.5743ZM237.355 8.02844C235.542 7.53751 233.691 7.08295 231.802 6.66702L232.447 3.73717C234.382 4.1633 236.28 4.62926 238.139 5.13281L237.355 8.02844ZM226.184 5.5658C225.245 5.40373 224.297 5.25102 223.34 5.10789L223.784 2.14091C224.762 2.28732 225.733 2.44359 226.694 2.60947L226.184 5.5658ZM223.34 5.10789C222.334 4.9574 221.33 4.81616 220.329 4.6841L220.722 1.70987C221.74 1.84421 222.761 1.98784 223.784 2.14091L223.34 5.10789ZM214.307 3.99586C212.278 3.79985 210.264 3.64139 208.266 3.51949L208.449 0.525055C210.482 0.649124 212.531 0.810349 214.595 1.00978L214.307 3.99586ZM202.217 3.25967C200.173 3.20915 198.151 3.1973 196.155 3.22295L196.116 0.22319C198.15 0.197052 200.21 0.209152 202.291 0.26059L202.217 3.25967ZM190.096 3.41907C188.05 3.526 186.036 3.67334 184.059 3.85968L183.777 0.872925C185.797 0.682587 187.852 0.532227 189.939 0.423157L190.096 3.41907ZM178.061 4.55943C176.024 4.84431 174.034 5.17249 172.096 5.54216L171.534 2.59531C173.522 2.21605 175.561 1.87988 177.645 1.58835L178.061 4.55943ZM166.2 6.83456C164.202 7.33266 162.274 7.8782 160.421 8.46875L159.51 5.61049C161.427 4.99939 163.418 4.43648 165.475 3.92365L166.2 6.83456ZM154.767 10.5067C152.848 11.2864 151.038 12.1204 149.347 13.0047L147.957 10.3463C149.74 9.41386 151.637 8.54002 153.638 7.72723L154.767 10.5067ZM144.277 16.0523C142.579 17.2311 141.069 18.4716 139.757 19.766L137.65 17.6305C139.098 16.2015 140.744 14.8529 142.566 13.5881L144.277 16.0523ZM136.154 24.237C135.135 25.8996 134.411 27.6257 133.995 29.4085L131.074 28.7273C131.568 26.6065 132.423 24.5832 133.597 22.6692L136.154 24.237ZM133.691 34.9692C133.893 36.7216 134.373 38.5457 135.163 40.4374L132.395 41.5936C131.506 39.4663 130.948 37.3694 130.711 35.3129L133.691 34.9692ZM137.958 45.5332C138.49 46.3202 139.074 47.1163 139.712 47.9211L137.361 49.7848C136.679 48.924 136.05 48.067 135.473 47.214L137.958 45.5332ZM139.712 47.9211C140.31 48.675 140.929 49.4093 141.569 50.1243L139.334 52.1252C138.654 51.366 137.997 50.586 137.361 49.7848L139.712 47.9211ZM145.648 54.1788C147.079 55.4464 148.589 56.642 150.175 57.7679L148.438 60.214C146.767 59.0281 145.173 57.7658 143.659 56.4241L145.648 54.1788ZM155.054 60.8815C156.704 61.8266 158.419 62.7107 160.197 63.5358L158.934 66.257C157.082 65.3976 155.29 64.4743 153.563 63.4845L155.054 60.8815ZM165.559 65.7781C167.354 66.4523 169.202 67.0752 171.1 67.6487L170.232 70.5204C168.274 69.9289 166.364 69.2851 164.504 68.5866L165.559 65.7781ZM176.765 69.1804C178.625 69.6278 180.526 70.0334 182.465 70.3989L181.91 73.347C179.924 72.9728 177.974 72.5568 176.063 72.0972L176.765 69.1804ZM188.258 71.3562C190.183 71.6319 192.14 71.8721 194.128 72.0782L193.819 75.0622C191.794 74.8523 189.798 74.6074 187.833 74.3259L188.258 71.3562ZM199.952 72.5794C201.89 72.7135 203.854 72.8181 205.84 72.8943L205.725 75.8921C203.709 75.8148 201.715 75.7086 199.745 75.5723L199.952 72.5794ZM211.749 73.0377C213.689 73.0585 215.648 73.0544 217.625 73.0266L217.667 76.0263C215.666 76.0545 213.682 76.0586 211.717 76.0376L211.749 73.0377ZM223.549 72.8749C225.494 72.8034 227.455 72.7106 229.43 72.5975L229.602 75.5926C227.607 75.7069 225.626 75.8006 223.659 75.8729L223.549 72.8749ZM235.329 72.203C237.283 72.0541 239.248 71.8867 241.224 71.7018L241.504 74.6887C239.511 74.8752 237.529 75.0441 235.557 75.1943L235.329 72.203ZM247.097 71.1041C249.053 70.8895 251.017 70.6588 252.989 70.4129L253.36 73.3899C251.374 73.6375 249.395 73.8699 247.424 74.0862L247.097 71.1041ZM258.837 69.6424C260.788 69.372 262.745 69.0876 264.706 68.7901L265.156 71.7562C263.182 72.0555 261.213 72.3417 259.249 72.614L258.837 69.6424ZM270.542 67.869C272.487 67.5503 274.434 67.2196 276.384 66.8776L276.902 69.8326C274.942 70.1764 272.983 70.5089 271.027 70.8295L270.542 67.869ZM282.207 65.8247C284.146 65.4637 286.086 65.0923 288.026 64.7114L288.604 67.6551C286.655 68.0379 284.705 68.4111 282.756 68.774L282.207 65.8247ZM293.831 63.5429C295.766 63.1442 297.699 62.7368 299.629 62.3213L300.26 65.2542C298.322 65.6714 296.38 66.0807 294.436 66.4812L293.831 63.5429ZM305.413 61.0512C307.344 60.6188 309.272 60.179 311.194 59.7326L311.873 62.6549C309.943 63.103 308.008 63.5445 306.068 63.9788L305.413 61.0512ZM316.952 58.373C318.882 57.9098 320.805 57.4407 322.721 56.9666L323.442 59.8787C321.519 60.3545 319.589 60.8252 317.653 61.2901L316.952 58.373ZM328.455 55.5266C330.383 55.0358 332.301 54.5405 334.209 54.0416L334.968 56.944C333.054 57.4445 331.13 57.9414 329.196 58.4338L328.455 55.5266ZM339.931 52.5269C341.853 52.012 343.763 51.4942 345.659 50.9744L346.452 53.8677C344.55 54.3889 342.635 54.9082 340.708 55.4246L339.931 52.5269ZM351.375 49.3903C353.288 48.8547 355.185 48.3179 357.066 47.7808L357.89 50.6654C356.005 51.2039 354.102 51.7421 352.184 52.2792L351.375 49.3903ZM362.785 46.1318C364.692 45.5769 366.58 45.0227 368.446 44.4704L369.298 47.347C367.427 47.9007 365.535 48.4561 363.623 49.0124L362.785 46.1318ZM374.154 42.7674C376.073 42.1903 377.967 41.6163 379.833 41.0467L380.709 43.9161C378.838 44.4868 376.941 45.0619 375.018 45.6403L374.154 42.7674ZM385.464 39.317C387.4 38.7181 389.303 38.1258 391.171 37.5414L392.067 40.4044C390.196 40.9898 388.29 41.5832 386.35 42.1831L385.464 39.317ZM396.832 35.7605C398.747 35.1548 400.619 34.56 402.445 33.9778L403.356 36.836C401.529 37.4188 399.654 38.0144 397.736 38.6209L396.832 35.7605ZM408.117 32.1634C410.074 31.5355 411.968 30.9263 413.795 30.3386L414.714 33.1944C412.887 33.7822 410.992 34.3917 409.033 35.02L408.117 32.1634ZM419.458 28.5175C420.396 28.2162 421.312 27.9225 422.205 27.6368L423.119 30.4941C422.228 30.7794 421.313 31.0728 420.375 31.3739L419.458 28.5175ZM422.205 27.6368C423.134 27.3397 424.068 27.0499 425.007 26.7674L425.871 29.6402C424.949 29.9178 424.031 30.2024 423.119 30.4941L422.205 27.6368ZM430.662 25.1685C432.546 24.6692 434.447 24.1973 436.365 23.7524L437.043 26.6748C435.155 27.1129 433.284 27.5772 431.431 28.0683L430.662 25.1685ZM442.099 22.5109C444.007 22.1267 445.93 21.7677 447.865 21.4335L448.375 24.3897C446.467 24.7194 444.572 25.0733 442.691 25.4519L442.099 22.5109ZM453.657 20.5118C455.584 20.2308 457.521 19.9733 459.469 19.7386L459.828 22.7171C457.905 22.9488 455.991 23.2031 454.09 23.4804L453.657 20.5118ZM465.297 19.1072C467.236 18.9202 469.183 18.7551 471.137 18.6114L471.357 21.6034C469.426 21.7454 467.501 21.9086 465.585 22.0934L465.297 19.1072ZM476.986 18.2458C478.931 18.1454 480.882 18.0654 482.837 18.0056L482.929 21.0042C480.995 21.0634 479.065 21.1425 477.14 21.2419L476.986 18.2458ZM488.692 17.8862C490.641 17.8661 492.593 17.8654 494.547 17.8837L494.519 20.8836C492.585 20.8654 490.652 20.8661 488.722 20.886L488.692 17.8862ZM500.401 17.9949C502.351 18.0506 504.301 18.1247 506.251 18.2169L506.109 21.2136C504.178 21.1223 502.246 21.0488 500.315 20.9937L500.401 17.9949ZM512.095 18.5472C514.043 18.6753 515.989 18.8209 517.932 18.9839L517.681 21.9734C515.756 21.812 513.828 21.6676 511.898 21.5408L512.095 18.5472ZM523.759 19.5252C525.703 19.7233 527.642 19.9384 529.575 20.1701L529.218 23.1488C527.303 22.9192 525.381 22.7061 523.455 22.5098L523.759 19.5252ZM535.38 20.918C537.319 21.1852 539.25 21.4689 541.172 21.7686L540.709 24.7328C538.805 24.4358 536.891 24.1547 534.97 23.8899L535.38 20.918ZM546.947 22.722C548.877 23.0584 550.797 23.4108 552.705 23.7788L552.136 26.7245C550.247 26.3599 548.345 26.0108 546.432 25.6775L546.947 22.722ZM558.442 24.9399C560.361 25.3467 562.266 25.7692 564.155 26.207L563.478 29.1296C561.607 28.6961 559.72 28.2776 557.819 27.8747L558.442 24.9399ZM569.842 27.5821C571.75 28.0629 573.64 28.5592 575.51 29.0706L574.719 31.9644C572.868 31.4583 570.997 30.9671 569.109 30.4911L569.842 27.5821ZM581.146 30.6747C582.084 30.9522 583.016 31.2336 583.943 31.5186L583.06 34.386C582.144 34.1041 581.222 33.8259 580.295 33.5514L581.146 30.6747ZM583.943 31.5186C584.83 31.7915 585.711 32.0684 586.587 32.3493L585.672 35.2061C584.806 34.9288 583.936 34.6554 583.06 34.386L583.943 31.5186ZM591.845 34.1038C593.606 34.7149 595.343 35.3422 597.057 35.9851L596.003 38.794C594.313 38.1599 592.599 37.541 590.861 36.9379L591.845 34.1038ZM602.225 37.999C603.955 38.6991 605.659 39.4152 607.336 40.1466L606.137 42.8965C604.485 42.1759 602.805 41.4701 601.1 40.78L602.225 37.999ZM612.392 42.4353C614.085 43.2303 615.748 44.0412 617.381 44.8673L616.026 47.5442C614.42 46.7315 612.783 45.9334 611.117 45.1506L612.392 42.4353ZM622.295 47.4486C623.941 48.346 625.552 49.2591 627.13 50.187L625.608 52.7726C624.06 51.8616 622.476 50.9646 620.859 50.0825L622.295 47.4486ZM631.871 53.0874C633.457 54.0958 635.003 55.1196 636.508 56.1577L634.806 58.6276C633.331 57.611 631.816 56.6077 630.261 55.6188L631.871 53.0874ZM641.028 59.4066C641.775 59.9673 642.511 60.5317 643.236 61.0995L641.385 63.4608C640.678 62.9062 639.958 62.3547 639.227 61.8066L641.028 59.4066ZM643.236 61.0995C644.288 61.9243 645.427 62.7692 646.517 63.5479L644.772 65.9886C643.654 65.1896 642.479 64.318 641.385 63.4608L643.236 61.0995ZM648.234 67.7583C647.472 67.1528 646.4 66.329 644.955 65.2481L646.752 62.8458C648.209 63.9359 649.307 64.7791 650.101 65.4101L648.234 67.7583Z" fill="#BCBCBC"/>
</svg>
