<svg xmlns="http://www.w3.org/2000/svg" fill="none" viewBox="65.38 32.19 72.77 84.62">
<path d="M65.3826 70.3418L113.469 58.8337L124.543 105.155L76.7106 116.814L65.3826 70.3418Z" fill="white"/>
<path d="M81.7343 43.1622L127.574 32.192L113.961 57.0377L66 68.7286L81.7343 43.1622Z" fill="#E8E8E8"/>
<path d="M125.405 104.449L114.837 58.5153L128.749 32.9756L138.152 79.2068L125.405 104.449Z" fill="#E8E8E8"/>
<path d="M88.9374 90.0436C89.0056 90.9495 88.8104 91.6976 88.3519 92.2879C87.8964 92.8735 87.2123 93.2548 86.2996 93.4318C85.3102 93.6236 84.4477 93.4227 83.7119 92.8293C82.9799 92.2351 82.4987 91.3435 82.2683 90.1547L82.1122 89.3494C81.9612 88.5709 81.9666 87.8597 82.1282 87.2156C82.2937 86.5707 82.6009 86.0416 83.05 85.6283C83.4983 85.2111 84.0581 84.9375 84.7292 84.8074C85.6188 84.6349 86.3805 84.7459 87.014 85.1404C87.6468 85.531 88.0924 86.1568 88.3508 87.0179L87.2406 87.2331C87.0154 86.5845 86.7127 86.1418 86.3326 85.9051C85.9563 85.6677 85.4806 85.6047 84.9054 85.7163C84.1997 85.8531 83.6962 86.2212 83.3946 86.8208C83.0969 87.4197 83.0413 88.2004 83.2279 89.163L83.3852 89.974C83.5614 90.8829 83.8913 91.569 84.375 92.0322C84.8588 92.4955 85.4419 92.661 86.1245 92.5287C86.7381 92.4097 87.1811 92.1806 87.4536 91.8413C87.7291 91.4974 87.8536 90.9699 87.8272 90.2588L88.9374 90.0436ZM94.5218 91.0798C94.2021 91.6471 93.6415 92.0085 92.84 92.1639C92.1765 92.2925 91.6332 92.1989 91.2099 91.883C90.7896 91.5626 90.5044 91.025 90.3541 90.2703L89.569 86.2207L90.6332 86.0144L91.4127 90.0353C91.5956 90.9786 92.0705 91.376 92.8375 91.2273C93.6504 91.0697 94.1324 90.6619 94.2834 90.004L93.4058 85.4769L94.47 85.2706L95.6765 91.4946L94.6641 91.6908L94.5218 91.0798ZM101.978 87.1157C102.162 88.0667 102.092 88.8742 101.767 89.538C101.441 90.1979 100.91 90.5993 100.174 90.742C99.388 90.8944 98.7263 90.7343 98.189 90.2615L98.2766 90.9905L97.2987 91.1801L95.5858 82.3446L96.65 82.1383L97.289 85.4344C97.6151 84.8181 98.156 84.4367 98.9114 84.2902C99.6669 84.1438 100.315 84.3146 100.855 84.8027C101.399 85.2901 101.767 86.0304 101.96 87.0236L101.978 87.1157ZM100.89 87.2012C100.75 86.4764 100.501 85.9436 100.145 85.6029C99.7882 85.2622 99.3473 85.1428 98.8219 85.2446C98.1201 85.3807 97.679 85.8044 97.4986 86.5158L98.0205 89.2079C98.4729 89.7966 99.0442 90.024 99.7344 89.8902C100.244 89.7914 100.603 89.5169 100.81 89.0669C101.018 88.6169 101.044 87.995 100.89 87.2012ZM106.519 89.512C105.675 89.6756 104.935 89.5326 104.299 89.0829C103.662 88.6295 103.254 87.9387 103.074 87.0107L103.036 86.8151C102.916 86.1977 102.926 85.6247 103.067 85.0962C103.21 84.5631 103.466 84.1195 103.835 83.7654C104.207 83.4068 104.641 83.1795 105.135 83.0836C105.945 82.9268 106.625 83.0714 107.177 83.5174C107.729 83.9635 108.101 84.6831 108.294 85.6764L108.38 86.1193L104.163 86.9367C104.298 87.5473 104.572 88.0093 104.987 88.3228C105.405 88.6317 105.879 88.7349 106.408 88.6323C106.784 88.5594 107.087 88.421 107.318 88.2171C107.549 88.0131 107.738 87.7657 107.885 87.4746L108.633 87.8548C108.267 88.7574 107.562 89.3098 106.519 89.512ZM105.305 83.958C104.875 84.0412 104.545 84.2683 104.315 84.6393C104.084 85.0064 103.988 85.4785 104.028 86.0557L107.146 85.4512L107.131 85.3707C106.995 84.8359 106.768 84.4462 106.45 84.2015C106.132 83.9529 105.75 83.8717 105.305 83.958Z" fill="#5A2969"/>
</svg>