<svg xmlns="http://www.w3.org/2000/svg" xmlns:xlink="http://www.w3.org/1999/xlink" id="body_1" viewBox="178 628 2515.32 790">

<g transform="matrix(2 0 0 2 0 0)">
	<g>
        <path d="M397.66406 511.83203C 397.66406 573.04297 348.04297 622.66406 286.83203 622.66406C 225.6211 622.66406 176 573.04297 176 511.83203C 176 450.6211 225.6211 401 286.83203 401C 348.04297 401 397.66406 450.6211 397.66406 511.83203z" stroke="none" fill="#1B2C87" fill-rule="nonzero"/>
        <path d="M362.10938 580.72266C 362.10938 533.625 328.40625 495.4453 286.83203 495.4453C 245.25781 495.4453 211.55469 533.625 211.55469 580.72266C 211.55469 627.8203 245.25781 666 286.83203 666C 328.40625 666 362.10938 627.8203 362.10938 580.72266z" stroke="none" fill="#E1E9F8" fill-rule="nonzero"/>
        <path d="M330.57812 487.9297C 328.77344 486.76172 326.3672 487.28125 325.19922 489.08594L325.19922 489.08594L312.55078 508.6953C 311.38672 510.5 311.90625 512.90625 313.71094 514.0703C 315.51562 515.2344 317.92188 514.71484 319.08984 512.91016L319.08984 512.91016L331.73828 493.3047C 332.90234 491.5 332.3828 489.09375 330.57812 487.9297z" stroke="none" fill="#E1E9F8" fill-rule="nonzero"/>
        <path d="M317.66797 483.5C 317.66797 492.2461 324.7539 499.33203 333.5 499.33203C 342.2461 499.33203 349.33203 492.2461 349.33203 483.5C 349.33203 474.7539 342.2461 467.66797 333.5 467.66797C 324.7539 467.66797 317.66797 474.7539 317.66797 483.5z" stroke="none" fill="#F4F4F4" fill-rule="nonzero"/>
        <path d="M234.19922 491.26172C 236.0039 490.09766 238.41016 490.6172 239.57422 492.42188L239.57422 492.42188L252.22656 512.02734C 253.39062 513.83203 252.8711 516.2422 251.0664 517.40625C 249.26172 518.5703 246.85156 518.0508 245.6875 516.2461L245.6875 516.2461L233.03906 496.63672C 231.875 494.83203 232.39453 492.42578 234.19922 491.26172z" stroke="none" fill="#E1E9F8" fill-rule="nonzero"/>
        <path d="M247.10938 486.83203C 247.10938 495.57812 240.02344 502.66797 231.27734 502.66797C 222.53516 502.66797 215.44531 495.57812 215.44531 486.83203C 215.44531 478.08984 222.53516 471 231.27734 471C 240.02344 471 247.10938 478.08984 247.10938 486.83203z" stroke="none" fill="#F4F4F4" fill-rule="nonzero"/>
        <path d="M260.39062 540.4453L313.27734 540.4453C 327.35938 540.4453 338.77734 551.8594 338.77734 565.9453L338.77734 565.9453L338.77734 576.6094C 338.77734 590.6953 327.35938 602.1094 313.27734 602.1094L313.27734 602.1094L260.39062 602.1094C 246.30469 602.1094 234.89062 590.6953 234.89062 576.6094L234.89062 576.6094L234.89062 565.9453C 234.89062 551.8594 246.30469 540.4453 260.39062 540.4453z" stroke="none" fill="#FFFFFF" fill-rule="nonzero"/>
        <path d="M268.22266 558.77734C 268.22266 557.3047 267.4336 555.8906 266.02344 554.84766C 264.6172 553.8086 262.71094 553.22266 260.72266 553.22266C 258.73438 553.22266 256.82422 553.8086 255.41797 554.84766C 254.01172 555.8906 253.22266 557.3047 253.22266 558.77734L253.22266 558.77734L268.22266 558.77734z" stroke="none" fill="#592969" fill-rule="nonzero"/>
        <path d="M320.4453 558.77734C 320.4453 557.3047 319.65234 555.8906 318.2461 554.84766C 316.83984 553.8086 314.9336 553.22266 312.9453 553.22266C 310.95312 553.22266 309.04688 553.8086 307.64062 554.84766C 306.23438 555.8906 305.4453 557.3047 305.4453 558.77734L305.4453 558.77734L320.4453 558.77734z" stroke="none" fill="#592969" fill-rule="nonzero"/>
        <path d="M302.66797 574.8906C 302.66797 576.8594 302.2578 578.8086 301.46094 580.6289C 300.66406 582.4492 299.5 584.10156 298.02734 585.4961C 296.5586 586.8867 294.8125 587.9922 292.89062 588.7461C 290.97266 589.5 288.91406 589.8906 286.83203 589.8906C 284.7539 589.8906 282.6953 589.5 280.77344 588.7461C 278.85156 587.9922 277.10938 586.8867 275.63672 585.4961C 274.16797 584.10156 273 582.4492 272.20312 580.6289C 271.41016 578.8086 271 576.8594 271 574.8906L271 574.8906L302.66797 574.8906z" stroke="none" fill="#592969" fill-rule="nonzero"/>
        <path d="M447.5703 625.79297C 422.70312 660.83594 387.08984 686.8125 346.1289 699.78516C 305.16406 712.7578 261.08984 712.0156 220.58594 697.6758C 180.08203 683.33594 145.35938 656.1797 121.68359 620.3203C 98.01172 584.46484 86.67578 541.8672 89.39844 498.98438C 92.12109 456.10547 108.75391 415.28125 136.76953 382.70703C 164.78906 350.1328 202.66797 327.58594 244.66016 318.48438C 286.65234 309.3789 330.46875 314.21875 369.46094 332.26953C 408.45312 350.3164 440.4961 380.58984 460.73047 418.4922L460.73047 418.4922L387.46875 457.60156C 375.7422 435.63672 357.17578 418.08984 334.57812 407.6328C 311.98047 397.17188 286.58984 394.3672 262.2539 399.64453C 237.91797 404.91797 215.96875 417.98438 199.73047 436.86328C 183.49219 455.73828 173.85156 479.39844 172.27344 504.2461C 170.69531 529.09766 177.26562 553.78516 190.98828 574.5664C 204.70703 595.34375 224.82812 611.08203 248.30078 619.39453C 271.77344 627.7031 297.3164 628.1328 321.0547 620.6133C 344.79297 613.09766 365.4336 598.04297 379.84375 577.7344L379.84375 577.7344L447.5703 625.79297z" stroke="none" fill="#FFB901" fill-rule="nonzero"/>
        <path d="M504.78516 487.5039C 503.72656 485.6797 499.79297 484.76953 492.97656 484.76953C 484.04688 484.76953 477.28125 487.79297 472.67188 493.83984C 468.0625 499.88672 465.76172 508.625 465.76172 520.0469C 465.76172 543.7617 474.64062 555.6172 492.39844 555.6172C 492.6875 555.6172 493.9375 555.6172 496.14453 555.6172C 498.44922 555.6172 500.60938 555.3281 502.625 554.7539C 504.64062 554.0781 505.83984 553.40625 506.22266 552.7344C 506.60938 552.0625 506.80078 551.0078 506.80078 549.5664L506.80078 549.5664L506.80078 538.0469L521.4883 539.0547L521.4883 563.96875C 514 567.90234 504.4961 569.8711 492.97656 569.8711C 478.28906 569.8711 467.0547 565.7422 459.28125 557.4883C 451.60156 549.23047 447.76172 536.9453 447.76172 520.625C 447.76172 511.60156 449.0547 503.72656 451.64844 497.0078C 454.23828 490.28906 457.7422 485.0547 462.16016 481.3125C 470.80078 474.11328 481.0703 470.51172 492.97656 470.51172C 502.57422 470.51172 511.60156 472.48047 520.0469 476.41406L520.0469 476.41406L520.0469 500.89453L505.35938 501.90234L505.35938 490.67188C 505.35938 489.23047 505.16797 488.17578 504.78516 487.5039z" stroke="none" fill="#1B2C87" fill-rule="nonzero"/>
        <path d="M566.4961 557.4883C 576.96094 557.4883 582.1914 549.03906 582.1914 532.14453C 582.1914 523.60156 580.9922 517.1211 578.59375 512.7031C 576.28906 508.28906 572.35156 506.07812 566.78516 506.07812C 561.3125 506.07812 557.28125 508.1914 554.6875 512.41406C 552.09766 516.6406 550.8008 522.39844 550.8008 529.6953C 550.8008 543.23047 553.2969 551.72656 558.28906 555.1836C 560.4961 556.71875 563.2344 557.4883 566.4961 557.4883zM533.3789 531.71094C 533.3789 524.6094 534.4336 518.46484 536.5469 513.28125C 538.65625 508 541.4883 503.96875 545.03906 501.1836C 551.85547 496 559.39453 493.40625 567.64844 493.40625C 573.41016 493.40625 578.2578 494.3672 582.1914 496.28906C 586.22656 498.11328 589.34375 500.27344 591.5547 502.76953C 593.85547 505.16797 595.77734 508.71875 597.3125 513.4258C 598.9453 518.03125 599.7617 523.5039 599.7617 529.83984C 599.7617 543.08984 596.5469 553.1211 590.1133 559.9375C 583.6797 566.7539 575.4258 570.16016 565.34375 570.16016C 555.3594 570.16016 547.53516 566.9453 541.8711 560.5117C 536.21094 553.9844 533.3789 544.3828 533.3789 531.71094zM645.59766 493.40625C 649.72656 493.40625 653.66406 493.98438 657.40625 495.13672L657.40625 495.13672L657.40625 480.59375C 657.40625 478.48047 656.16016 477.32812 653.66406 477.13672L653.66406 477.13672L647.47266 476.70312L647.47266 465.32812L674.2539 465.32812L674.2539 552.8789C 674.35156 555.08984 675.5508 556.1914 677.85547 556.1914L677.85547 556.1914L682.89453 556.48047L682.89453 568L659.5664 568L659.5664 559.5039L659.1367 559.3594C 654.8164 566.3672 648.28516 569.8711 639.5508 569.8711C 628.60547 569.8711 620.9258 566.22266 616.5117 558.9297C 612.48047 552.3047 610.46484 544.1914 610.46484 534.59375C 610.46484 522.1133 613.53516 512.1289 619.6797 504.64062C 625.91797 497.15234 634.5586 493.40625 645.59766 493.40625zM657.40625 545.53516L657.40625 508.23828C 653.9492 506.70312 650.3047 505.9375 646.46484 505.9375C 640.1289 505.9375 635.47266 508.48047 632.4961 513.5664C 629.6133 518.65625 628.1758 525.1367 628.1758 533.0078C 628.1758 549.1367 633.3594 557.1992 643.72656 557.1992C 647.66406 557.1992 650.9258 556.09766 653.51953 553.8867C 656.1094 551.58594 657.40625 548.8008 657.40625 545.53516zM727.4414 493.40625C 734.64453 493.40625 740.35547 495.1836 744.5781 498.73438C 748.8047 502.1914 750.91406 507.08984 750.91406 513.4258C 750.91406 517.64844 750.0039 521.3906 748.1797 524.65625C 746.35547 527.8242 744.09766 530.3203 741.41016 532.14453C 738.72266 533.96875 735.46094 535.45703 731.6172 536.6094C 725.1875 538.52734 717.9375 539.4883 709.875 539.4883C 710.16406 544.5742 711.7461 548.7031 714.6289 551.8711C 717.5078 554.9453 721.9219 556.48047 727.875 556.48047C 733.8281 556.48047 739.77734 554.3672 745.73047 550.14453L745.73047 550.14453L751.2031 561.8086C 749.28125 563.53516 746.01953 565.3125 741.41016 567.1367C 736.89844 568.96094 731.71484 569.8711 725.8594 569.8711C 714.14844 569.8711 705.5547 566.65625 700.08203 560.22266C 694.6094 553.6953 691.875 544.76953 691.875 533.4414C 691.875 522.1133 694.9961 512.6094 701.2344 504.9297C 707.47656 497.2461 716.21094 493.40625 727.4414 493.40625zM720.8203 526.3828C 724.3711 525.71094 727.6367 524.3203 730.6094 522.20703C 733.58594 520 735.0742 517.40625 735.0742 514.4336C 735.0742 508.57422 732.1953 505.64844 726.4336 505.64844C 721.0586 505.64844 716.9297 507.8086 714.0508 512.1289C 711.1719 516.35156 709.58594 521.4414 709.3008 527.3906C 713.52344 527.2969 717.3633 526.96094 720.8203 526.3828zM798.77734 506.51172C 796.47266 505.64844 793.6875 505.21484 790.4258 505.21484C 787.16016 505.21484 784.51953 505.98438 782.5039 507.51953C 780.58594 508.96094 779.625 510.78516 779.625 512.9922C 779.625 515.10547 779.96094 516.78516 780.6328 518.03125C 781.40234 519.1836 782.5547 520.1914 784.08984 521.0547C 786.4883 522.3047 789.3672 523.40625 792.73047 524.3672C 796.08984 525.23047 798.58594 525.9531 800.21875 526.52734C 801.84766 527.0078 803.8633 527.8711 806.2656 529.1211C 808.7617 530.3672 810.6328 531.71094 811.8828 533.15234C 815.2422 536.7031 816.9219 541.2656 816.9219 546.83203C 816.9219 554.03125 814.28125 559.6953 809 563.8242C 803.8164 567.85547 797.1914 569.8711 789.1289 569.8711C 777.41797 569.8711 768.58594 568.3828 762.6328 565.40625L762.6328 565.40625L762.6328 545.3906L775.59375 544.3828L775.59375 551.2969C 775.59375 555.51953 779.625 557.6328 787.6875 557.6328C 795.7539 557.6328 799.78516 554.7031 799.78516 548.84766C 799.78516 546.7344 799.0664 545.0078 797.625 543.66406C 796.28125 542.3203 794.9375 541.40625 793.59375 540.9297C 792.25 540.4492 790.6172 539.96875 788.6953 539.4883C 786.8711 539.0078 785.0508 538.52734 783.22656 538.0469C 781.4961 537.5664 779.5781 536.9453 777.46484 536.1758C 775.4492 535.3125 773.1914 534.1133 770.6953 532.5742C 765.8008 529.40625 763.35156 524.1289 763.35156 516.7344C 763.35156 509.2461 765.9922 503.48828 771.27344 499.45703C 776.5547 495.42578 783.1758 493.40625 791.14453 493.40625C 799.21094 493.40625 807.1758 495.32812 815.0508 499.16797L815.0508 499.16797L815.0508 516.4492L802.08984 517.45703L802.08984 511.40625C 802.08984 509.0078 800.9844 507.375 798.77734 506.51172zM906.85547 507.08984L906.85547 495.5664L931.1914 495.5664L931.1914 504.9297C 933.6875 501.375 937 498.59375 941.1289 496.57422C 945.2578 494.46484 949.72266 493.40625 954.51953 493.40625C 961.8164 493.40625 967.4336 495.51953 971.3672 499.7422C 975.40234 503.8711 977.41797 510.11328 977.41797 518.46484L977.41797 518.46484L977.41797 556.0469L985.625 556.48047L985.625 568L951.35156 568L951.35156 557.0547L956.10547 556.625C 957.5469 556.4336 958.60156 556.0469 959.27344 555.47266C 959.9453 554.8008 960.28125 553.60156 960.28125 551.8711L960.28125 551.8711L960.28125 522.20703C 960.28125 516.9297 959.46484 513.03906 957.83203 510.54297C 956.1992 507.95312 953.08203 506.65625 948.47266 506.65625C 943.96094 506.65625 940.3594 508.09766 937.6719 510.97656C 934.9844 513.85547 933.6406 517.2656 933.6406 521.1992L933.6406 521.1992L933.6406 556.0469L941.84766 556.48047L941.84766 568L907.5781 568L907.5781 557.0547L912.3281 556.625C 913.76953 556.4336 914.8242 556.0469 915.4961 555.47266C 916.16797 554.8008 916.5039 553.60156 916.5039 551.8711L916.5039 551.8711L916.5039 511.98438C 916.5039 509.10547 915.3047 507.6172 912.90625 507.51953zM1030.2109 493.40625C 1034.3398 493.40625 1038.2695 493.98438 1042.0195 495.13672L1042.0195 495.13672L1042.0195 480.59375C 1042.0195 478.48047 1040.7695 477.32812 1038.2695 477.13672L1038.2695 477.13672L1032.0781 476.70312L1032.0781 465.32812L1058.8594 465.32812L1058.8594 552.8789C 1058.9609 555.08984 1060.1602 556.1914 1062.4609 556.1914L1062.4609 556.1914L1067.5 556.48047L1067.5 568L1044.1797 568L1044.1797 559.5039L1043.7383 559.3594C 1039.4219 566.3672 1032.8984 569.8711 1024.1602 569.8711C 1013.21875 569.8711 1005.53906 566.22266 1001.1211 558.9297C 997.08984 552.3047 995.0742 544.1914 995.0742 534.59375C 995.0742 522.1133 998.14453 512.1289 1004.28906 504.64062C 1010.53125 497.15234 1019.1719 493.40625 1030.2109 493.40625zM1042.0195 545.53516L1042.0195 508.23828C 1038.5586 506.70312 1034.9102 505.9375 1031.0703 505.9375C 1024.7383 505.9375 1020.0781 508.48047 1017.10156 513.5664C 1014.21875 518.65625 1012.78125 525.1367 1012.78125 533.0078C 1012.78125 549.1367 1017.96875 557.1992 1028.3398 557.1992C 1032.2695 557.1992 1035.5391 556.09766 1038.1289 553.8867C 1040.7188 551.58594 1042.0195 548.8008 1042.0195 545.53516zM1195.6484 557.4883C 1206.1211 557.4883 1211.3516 549.03906 1211.3516 532.14453C 1211.3516 523.60156 1210.1484 517.1211 1207.75 512.7031C 1205.4492 508.28906 1201.5117 506.07812 1195.9414 506.07812C 1190.4688 506.07812 1186.4414 508.1914 1183.8516 512.41406C 1181.25 516.6406 1179.9609 522.39844 1179.9609 529.6953C 1179.9609 543.23047 1182.4492 551.72656 1187.4492 555.1836C 1189.6484 556.71875 1192.3906 557.4883 1195.6484 557.4883zM1162.5312 531.71094C 1162.5312 524.6094 1163.5898 518.46484 1165.6992 513.28125C 1167.8086 508 1170.6484 503.96875 1174.1992 501.1836C 1181.0117 496 1188.5508 493.40625 1196.8086 493.40625C 1202.5703 493.40625 1207.4102 494.3672 1211.3516 496.28906C 1215.3789 498.11328 1218.5 500.27344 1220.7109 502.76953C 1223.0117 505.16797 1224.9297 508.71875 1226.4688 513.4258C 1228.1016 518.03125 1228.9219 523.5039 1228.9219 529.83984C 1228.9219 543.08984 1225.6992 553.1211 1219.2695 559.9375C 1212.8398 566.7539 1204.5781 570.16016 1194.5 570.16016C 1184.5195 570.16016 1176.6914 566.9453 1171.0312 560.5117C 1165.3711 553.9844 1162.5312 544.3828 1162.5312 531.71094zM1252.4883 480.3047L1261.8516 480.3047L1261.8516 495.5664L1281 495.5664L1279.5586 507.66406L1261.8516 507.66406L1261.8516 545.53516C 1261.8516 549.7617 1262.6094 552.7344 1264.1484 554.46484C 1265.6914 556.09766 1268.0391 556.91016 1271.2109 556.91016C 1274.4688 556.91016 1277.7305 555.90234 1281 553.8867L1281 553.8867L1285.3203 564.97656C 1280.5195 568.33594 1274.4219 570.0156 1267.0312 570.0156C 1262.7109 570.0156 1259.0586 569.4414 1256.0898 568.28906C 1253.1094 567.23047 1250.8984 566.03125 1249.4609 564.6875C 1248.0195 563.34375 1246.9219 561.375 1246.1484 558.78516C 1245.3789 556.1914 1244.9492 554.1758 1244.8516 552.7344C 1244.7617 551.1992 1244.7109 548.9922 1244.7109 546.1133L1244.7109 546.1133L1244.7109 507.66406L1234.4883 507.66406L1235.9297 497.15234C 1240.4414 496.76953 1243.8516 495.1836 1246.1484 492.39844C 1248.4492 489.51953 1250.5703 485.48828 1252.4883 480.3047zM1328.5117 506.51172C 1326.2109 505.64844 1323.4219 505.21484 1320.1602 505.21484C 1316.8984 505.21484 1314.2617 505.98438 1312.2383 507.51953C 1310.3203 508.96094 1309.3594 510.78516 1309.3594 512.9922C 1309.3594 515.10547 1309.6992 516.78516 1310.3711 518.03125C 1311.1406 519.1836 1312.2891 520.1914 1313.8203 521.0547C 1316.2188 522.3047 1319.1016 523.40625 1322.4609 524.3672C 1325.8203 525.23047 1328.3203 525.9531 1329.9492 526.52734C 1331.5781 527.0078 1333.6016 527.8711 1336 529.1211C 1338.5 530.3672 1340.3711 531.71094 1341.6211 533.15234C 1344.9805 536.7031 1346.6602 541.2656 1346.6602 546.83203C 1346.6602 554.03125 1344.0195 559.6953 1338.7383 563.8242C 1333.5508 567.85547 1326.9297 569.8711 1318.8594 569.8711C 1307.1484 569.8711 1298.3203 568.3828 1292.3711 565.40625L1292.3711 565.40625L1292.3711 545.3906L1305.3281 544.3828L1305.3281 551.2969C 1305.3281 555.51953 1309.3594 557.6328 1317.4219 557.6328C 1325.4883 557.6328 1329.5195 554.7031 1329.5195 548.84766C 1329.5195 546.7344 1328.8008 545.0078 1327.3594 543.66406C 1326.0195 542.3203 1324.6719 541.40625 1323.3281 540.9297C 1321.9805 540.4492 1320.3516 539.96875 1318.4297 539.4883C 1316.6094 539.0078 1314.7812 538.52734 1312.9609 538.0469C 1311.2305 537.5664 1309.3086 536.9453 1307.1992 536.1758C 1305.1797 535.3125 1302.9297 534.1133 1300.4297 532.5742C 1295.5391 529.40625 1293.0898 524.1289 1293.0898 516.7344C 1293.0898 509.2461 1295.7305 503.48828 1301.0117 499.45703C 1306.2891 495.42578 1312.9102 493.40625 1320.8789 493.40625C 1328.9414 493.40625 1336.9102 495.32812 1344.7812 499.16797L1344.7812 499.16797L1344.7812 516.4492L1331.8203 517.45703L1331.8203 511.40625C 1331.8203 509.0078 1330.7188 507.375 1328.5117 506.51172z" stroke="none" fill="#727272" fill-rule="nonzero"/>
        <path d="M890.6758 498.44922L890.6758 552.0156C 890.6758 553.5508 890.91406 554.6094 891.39453 555.1836C 891.96875 555.7617 892.9297 556.09766 894.27344 556.1914L894.27344 556.1914L898.8828 556.48047L898.8828 568L875.9844 568L875.9844 559.64844L875.5547 559.5039C 870.7539 566.41406 864.1797 569.8711 855.8242 569.8711C 846.03516 569.8711 838.78516 566.7539 834.08203 560.5117C 829.3789 554.27344 827.02734 545.72656 827.02734 534.8789C 827.02734 521.8242 830.1953 511.64844 836.53125 504.35156C 842.8672 497.0547 852.3711 493.40625 865.04297 493.40625C 873.2031 493.40625 881.7461 495.08984 890.6758 498.44922zM873.96875 545.10547L873.96875 507.8086C 871.28125 506.5586 867.58594 505.9375 862.8828 505.9375C 856.4492 505.9375 851.79297 508.52734 848.91406 513.71094C 846.03516 518.89453 844.59375 525.7617 844.59375 534.3047C 844.59375 549.85547 849.58594 557.6328 859.5703 557.6328C 863.79297 557.6328 867.25 556.3828 869.9375 553.8867C 872.625 551.2969 873.96875 548.3672 873.96875 545.10547z" stroke="none" fill="#FFB901" fill-rule="nonzero"/>
        <path d="M1076.7695 472.23828L1117.3789 472.23828C 1138.1211 472.23828 1148.4805 480.2578 1148.4805 496.28906C 1148.4805 505.1211 1144.0703 511.83984 1135.2383 516.4492C 1140.8984 517.8867 1145.3203 520.52734 1148.4805 524.3672C 1151.75 528.20703 1153.3789 533.1992 1153.3789 539.34375C 1153.3789 548.65625 1150.2109 555.7617 1143.8789 560.65625C 1137.6406 565.5508 1128.5195 568 1116.5195 568L1116.5195 568L1076.0508 568L1076.0508 556.33594L1080.8008 555.90234C 1083.5898 555.6172 1084.9805 554.27344 1084.9805 551.8711L1084.9805 551.8711L1084.9805 484.91016L1076.7695 484.48047L1076.7695 472.23828zM1102.5508 524.3672L1102.5508 554.46484L1116.0781 554.46484C 1128.5586 554.46484 1134.8008 549.375 1134.8008 539.1992C 1134.8008 534.39844 1133.2188 530.7539 1130.0508 528.2578C 1126.9805 525.66406 1122.5586 524.3672 1116.8008 524.3672zM1102.5508 485.48828L1102.5508 511.55078L1113.1992 511.55078C 1119.1602 511.55078 1123.5195 510.35156 1126.3086 507.95312C 1129.1914 505.45703 1130.6289 502 1130.6289 497.58594C 1130.6289 493.16797 1129.1914 490.04688 1126.3086 488.22266C 1123.5195 486.39844 1119.4883 485.48828 1114.2109 485.48828z" stroke="none" fill="#592969" fill-rule="nonzero"/>
	</g>
</g>
</svg>