<svg xmlns="http://www.w3.org/2000/svg" fill="none" viewBox="53 50 91 69">
<ellipse cx="113.5" cy="118" rx="25.5" ry="1" fill="black" fill-opacity="0.2"/>
<rect x="53" y="50" width="91" height="58" rx="4" fill="#C4C4C4"/>
<rect x="97" y="106" width="4" height="10" fill="#C4C4C4"/>
<rect x="55" y="52" width="86" height="54" rx="4" fill="white"/>
<rect x="75" y="116" width="47" height="2" rx="1" fill="#C4C4C4"/>
<path d="M75.0039 79.2266L78.6719 80.709V81.8574L73.8789 79.6367V78.7812L78.6719 76.5664V77.7148L75.0039 79.2266ZM86.8281 80.293C86.7227 81.1953 86.3887 81.8926 85.8262 82.3848C85.2676 82.873 84.5234 83.1172 83.5938 83.1172C82.5859 83.1172 81.7773 82.7559 81.168 82.0332C80.5625 81.3105 80.2598 80.3438 80.2598 79.1328V78.3125C80.2598 77.5195 80.4004 76.8223 80.6816 76.2207C80.9668 75.6191 81.3691 75.1582 81.8887 74.8379C82.4082 74.5137 83.0098 74.3516 83.6934 74.3516C84.5996 74.3516 85.3262 74.6055 85.873 75.1133C86.4199 75.6172 86.7383 76.3164 86.8281 77.2109H85.6973C85.5996 76.5312 85.3867 76.0391 85.0586 75.7344C84.7344 75.4297 84.2793 75.2773 83.6934 75.2773C82.9746 75.2773 82.4102 75.543 82 76.0742C81.5938 76.6055 81.3906 77.3613 81.3906 78.3418V79.168C81.3906 80.0938 81.584 80.8301 81.9707 81.377C82.3574 81.9238 82.8984 82.1973 83.5938 82.1973C84.2188 82.1973 84.6973 82.0566 85.0293 81.7754C85.3652 81.4902 85.5879 80.9961 85.6973 80.293H86.8281ZM87.9121 79.7715C87.9121 79.1504 88.0332 78.5918 88.2754 78.0957C88.5215 77.5996 88.8613 77.2168 89.2949 76.9473C89.7324 76.6777 90.2305 76.543 90.7891 76.543C91.6523 76.543 92.3496 76.8418 92.8809 77.4395C93.416 78.0371 93.6836 78.832 93.6836 79.8242V79.9004C93.6836 80.5176 93.5645 81.0723 93.3262 81.5645C93.0918 82.0527 92.7539 82.4336 92.3125 82.707C91.875 82.9805 91.3711 83.1172 90.8008 83.1172C89.9414 83.1172 89.2441 82.8184 88.709 82.2207C88.1777 81.623 87.9121 80.832 87.9121 79.8477V79.7715ZM89.002 79.9004C89.002 80.6035 89.1641 81.168 89.4883 81.5938C89.8164 82.0195 90.2539 82.2324 90.8008 82.2324C91.3516 82.2324 91.7891 82.0176 92.1133 81.5879C92.4375 81.1543 92.5996 80.5488 92.5996 79.7715C92.5996 79.0762 92.4336 78.5137 92.1016 78.084C91.7734 77.6504 91.3359 77.4336 90.7891 77.4336C90.2539 77.4336 89.8223 77.6465 89.4941 78.0723C89.166 78.498 89.002 79.1074 89.002 79.9004ZM94.7793 79.7773C94.7793 78.8047 95.0098 78.0234 95.4707 77.4336C95.9316 76.8398 96.5352 76.543 97.2812 76.543C98.0234 76.543 98.6113 76.7969 99.0449 77.3047V74H100.129V83H99.1328L99.0801 82.3203C98.6465 82.8516 98.043 83.1172 97.2695 83.1172C96.5352 83.1172 95.9355 82.8164 95.4707 82.2148C95.0098 81.6133 94.7793 80.8281 94.7793 79.8594V79.7773ZM95.8633 79.9004C95.8633 80.6191 96.0117 81.1816 96.3086 81.5879C96.6055 81.9941 97.0156 82.1973 97.5391 82.1973C98.2266 82.1973 98.7285 81.8887 99.0449 81.2715V78.3594C98.7207 77.7617 98.2227 77.4629 97.5508 77.4629C97.0195 77.4629 96.6055 77.668 96.3086 78.0781C96.0117 78.4883 95.8633 79.0957 95.8633 79.9004ZM102.994 83H101.91V76.6602H102.994V83ZM101.822 74.9785C101.822 74.8027 101.875 74.6543 101.98 74.5332C102.09 74.4121 102.25 74.3516 102.461 74.3516C102.672 74.3516 102.832 74.4121 102.941 74.5332C103.051 74.6543 103.105 74.8027 103.105 74.9785C103.105 75.1543 103.051 75.3008 102.941 75.418C102.832 75.5352 102.672 75.5938 102.461 75.5938C102.25 75.5938 102.09 75.5352 101.98 75.418C101.875 75.3008 101.822 75.1543 101.822 74.9785ZM105.76 76.6602L105.795 77.457C106.279 76.8477 106.912 76.543 107.693 76.543C109.033 76.543 109.709 77.2988 109.721 78.8105V83H108.637V78.8047C108.633 78.3477 108.527 78.0098 108.32 77.791C108.117 77.5723 107.799 77.4629 107.365 77.4629C107.014 77.4629 106.705 77.5566 106.439 77.7441C106.174 77.9316 105.967 78.1777 105.818 78.4824V83H104.734V76.6602H105.76ZM111.098 79.7773C111.098 78.7891 111.326 78.0039 111.783 77.4219C112.24 76.8359 112.846 76.543 113.6 76.543C114.373 76.543 114.977 76.8164 115.41 77.3633L115.463 76.6602H116.453V82.8477C116.453 83.668 116.209 84.3145 115.721 84.7871C115.236 85.2598 114.584 85.4961 113.764 85.4961C113.307 85.4961 112.859 85.3984 112.422 85.2031C111.984 85.0078 111.65 84.7402 111.42 84.4004L111.982 83.75C112.447 84.3242 113.016 84.6113 113.688 84.6113C114.215 84.6113 114.625 84.4629 114.918 84.166C115.215 83.8691 115.363 83.4512 115.363 82.9121V82.3672C114.93 82.8672 114.338 83.1172 113.588 83.1172C112.846 83.1172 112.244 82.8184 111.783 82.2207C111.326 81.623 111.098 80.8086 111.098 79.7773ZM112.188 79.9004C112.188 80.6152 112.334 81.1777 112.627 81.5879C112.92 81.9941 113.33 82.1973 113.857 82.1973C114.541 82.1973 115.043 81.8867 115.363 81.2656V78.3711C115.031 77.7656 114.533 77.4629 113.869 77.4629C113.342 77.4629 112.93 77.668 112.633 78.0781C112.336 78.4883 112.188 79.0957 112.188 79.9004ZM121.932 79.1914L118.059 77.6738V76.5605L123.062 78.7754V79.6309L118.059 81.8516V80.7266L121.932 79.1914Z" fill="#5A2969"/>
</svg>