<svg width="1440" height="1024" viewBox="0 0 1440 1024" fill="none" xmlns="http://www.w3.org/2000/svg">
<circle cx="286.833" cy="511.833" r="110.833" fill="#1B2C87"/>
<ellipse cx="286.833" cy="580.722" rx="75.2778" ry="85.2778" fill="#E1E9F8"/>
<rect width="7.77778" height="31.1111" rx="3.88889" transform="matrix(-0.84032 -0.542091 -0.542091 0.84032 333.845 490.036)" fill="#E1E9F8"/>
<circle r="15.8333" transform="matrix(-1 0 0 1 333.5 483.5)" fill="#F4F4F4"/>
<rect x="230.932" y="493.37" width="7.77778" height="31.1111" rx="3.88889" transform="rotate(-32.8261 230.932 493.37)" fill="#E1E9F8"/>
<circle cx="231.278" cy="486.833" r="15.8333" fill="#F4F4F4"/>
<rect x="234.889" y="540.444" width="103.889" height="61.6667" rx="25.5" fill="white"/>
<path d="M268.222 558.778C268.222 557.304 267.432 555.891 266.025 554.849C264.619 553.808 262.711 553.222 260.722 553.222C258.733 553.222 256.825 553.808 255.419 554.849C254.012 555.891 253.222 557.304 253.222 558.778L260.722 558.778H268.222Z" fill="#592969"/>
<path d="M320.444 558.778C320.444 557.304 319.654 555.891 318.248 554.849C316.841 553.808 314.933 553.222 312.944 553.222C310.955 553.222 309.048 553.808 307.641 554.849C306.235 555.891 305.444 557.304 305.444 558.778L312.944 558.778H320.444Z" fill="#592969"/>
<path d="M302.667 574.889C302.667 576.859 302.257 578.809 301.461 580.629C300.666 582.449 299.499 584.103 298.029 585.496C296.559 586.888 294.813 587.993 292.892 588.747C290.971 589.501 288.913 589.889 286.833 589.889C284.754 589.889 282.695 589.501 280.774 588.747C278.853 587.993 277.108 586.888 275.637 585.496C274.167 584.103 273.001 582.449 272.205 580.629C271.41 578.809 271 576.859 271 574.889L286.833 574.889H302.667Z" fill="#592969"/>
<path d="M447.569 625.794C422.704 660.835 387.089 686.812 346.127 699.784C305.165 712.756 261.09 712.016 220.586 697.676C180.082 683.336 145.36 656.179 121.685 620.322C98.0103 584.466 86.6744 541.867 89.3968 498.986C92.1193 456.105 108.752 415.282 136.771 382.708C164.79 350.133 202.669 327.585 244.661 318.483C286.653 309.38 330.468 314.22 369.46 332.269C408.453 350.317 440.496 380.589 460.73 418.494L387.47 457.601C375.744 435.635 357.174 418.091 334.577 407.632C311.98 397.173 286.588 394.368 262.253 399.643C237.918 404.918 215.967 417.985 199.729 436.862C183.491 455.74 173.853 479.398 172.275 504.248C170.697 529.098 177.267 553.785 190.987 574.565C204.707 595.344 224.829 611.082 248.302 619.393C271.774 627.703 297.317 628.132 321.055 620.614C344.794 613.096 365.433 598.042 379.843 577.735L447.569 625.794Z" fill="#FFB901"/>
<path d="M504.784 487.504C503.728 485.68 499.792 484.768 492.976 484.768C484.048 484.768 477.28 487.792 472.672 493.84C468.064 499.888 465.76 508.624 465.76 520.048C465.76 543.76 474.64 555.616 492.4 555.616C492.688 555.616 493.936 555.616 496.144 555.616C498.448 555.616 500.608 555.328 502.624 554.752C504.64 554.08 505.84 553.408 506.224 552.736C506.608 552.064 506.8 551.008 506.8 549.568V538.048L521.488 539.056V563.968C514 567.904 504.496 569.872 492.976 569.872C478.288 569.872 467.056 565.744 459.28 557.488C451.6 549.232 447.76 536.944 447.76 520.624C447.76 511.6 449.056 503.728 451.648 497.008C454.24 490.288 457.744 485.056 462.16 481.312C470.8 474.112 481.072 470.512 492.976 470.512C502.576 470.512 511.6 472.48 520.048 476.416V500.896L505.36 501.904V490.672C505.36 489.232 505.168 488.176 504.784 487.504Z" fill="#1B2C87"/>
<path d="M566.497 557.488C576.961 557.488 582.193 549.04 582.193 532.144C582.193 523.6 580.993 517.12 578.593 512.704C576.289 508.288 572.353 506.08 566.785 506.08C561.313 506.08 557.281 508.192 554.689 512.416C552.097 516.64 550.801 522.4 550.801 529.696C550.801 543.232 553.297 551.728 558.289 555.184C560.497 556.72 563.233 557.488 566.497 557.488ZM533.377 531.712C533.377 524.608 534.433 518.464 536.545 513.28C538.657 508 541.489 503.968 545.041 501.184C551.857 496 559.393 493.408 567.649 493.408C573.409 493.408 578.257 494.368 582.193 496.288C586.225 498.112 589.345 500.272 591.553 502.768C593.857 505.168 595.777 508.72 597.313 513.424C598.945 518.032 599.761 523.504 599.761 529.84C599.761 543.088 596.545 553.12 590.113 559.936C583.681 566.752 575.425 570.16 565.345 570.16C555.361 570.16 547.537 566.944 541.873 560.512C536.209 553.984 533.377 544.384 533.377 531.712ZM645.599 493.408C649.727 493.408 653.663 493.984 657.407 495.136V480.592C657.407 478.48 656.159 477.328 653.663 477.136L647.471 476.704V465.328H674.255V552.88C674.351 555.088 675.551 556.192 677.855 556.192L682.895 556.48V568H659.567V559.504L659.135 559.36C654.815 566.368 648.287 569.872 639.551 569.872C628.607 569.872 620.927 566.224 616.511 558.928C612.479 552.304 610.463 544.192 610.463 534.592C610.463 522.112 613.535 512.128 619.679 504.64C625.919 497.152 634.559 493.408 645.599 493.408ZM657.407 545.536V508.24C653.951 506.704 650.303 505.936 646.463 505.936C640.127 505.936 635.471 508.48 632.495 513.568C629.615 518.656 628.175 525.136 628.175 533.008C628.175 549.136 633.359 557.2 643.727 557.2C647.663 557.2 650.927 556.096 653.519 553.888C656.111 551.584 657.407 548.8 657.407 545.536ZM727.443 493.408C734.643 493.408 740.355 495.184 744.579 498.736C748.803 502.192 750.915 507.088 750.915 513.424C750.915 517.648 750.003 521.392 748.179 524.656C746.355 527.824 744.099 530.32 741.411 532.144C738.723 533.968 735.459 535.456 731.619 536.608C725.187 538.528 717.939 539.488 709.875 539.488C710.163 544.576 711.747 548.704 714.627 551.872C717.507 554.944 721.923 556.48 727.875 556.48C733.827 556.48 739.779 554.368 745.731 550.144L751.203 561.808C749.283 563.536 746.019 565.312 741.411 567.136C736.899 568.96 731.715 569.872 725.859 569.872C714.147 569.872 705.555 566.656 700.083 560.224C694.611 553.696 691.875 544.768 691.875 533.44C691.875 522.112 694.995 512.608 701.235 504.928C707.475 497.248 716.211 493.408 727.443 493.408ZM720.819 526.384C724.371 525.712 727.635 524.32 730.611 522.208C733.587 520 735.075 517.408 735.075 514.432C735.075 508.576 732.195 505.648 726.435 505.648C721.059 505.648 716.931 507.808 714.051 512.128C711.171 516.352 709.587 521.44 709.299 527.392C713.523 527.296 717.363 526.96 720.819 526.384ZM798.777 506.512C796.473 505.648 793.689 505.216 790.425 505.216C787.161 505.216 784.521 505.984 782.505 507.52C780.585 508.96 779.625 510.784 779.625 512.992C779.625 515.104 779.961 516.784 780.633 518.032C781.401 519.184 782.553 520.192 784.089 521.056C786.489 522.304 789.369 523.408 792.729 524.368C796.089 525.232 798.585 525.952 800.217 526.528C801.849 527.008 803.865 527.872 806.265 529.12C808.761 530.368 810.633 531.712 811.881 533.152C815.241 536.704 816.921 541.264 816.921 546.832C816.921 554.032 814.281 559.696 809.001 563.824C803.817 567.856 797.193 569.872 789.129 569.872C777.417 569.872 768.585 568.384 762.633 565.408V545.392L775.593 544.384V551.296C775.593 555.52 779.625 557.632 787.689 557.632C795.753 557.632 799.785 554.704 799.785 548.848C799.785 546.736 799.065 545.008 797.625 543.664C796.281 542.32 794.937 541.408 793.593 540.928C792.249 540.448 790.617 539.968 788.697 539.488C786.873 539.008 785.049 538.528 783.225 538.048C781.497 537.568 779.577 536.944 777.465 536.176C775.449 535.312 773.193 534.112 770.697 532.576C765.801 529.408 763.353 524.128 763.353 516.736C763.353 509.248 765.993 503.488 771.273 499.456C776.553 495.424 783.177 493.408 791.145 493.408C799.209 493.408 807.177 495.328 815.049 499.168V516.448L802.089 517.456V511.408C802.089 509.008 800.985 507.376 798.777 506.512ZM906.857 507.088V495.568H931.193V504.928C933.689 501.376 937.001 498.592 941.129 496.576C945.257 494.464 949.721 493.408 954.521 493.408C961.817 493.408 967.433 495.52 971.369 499.744C975.401 503.872 977.417 510.112 977.417 518.464V556.048L985.625 556.48V568H951.353V557.056L956.105 556.624C957.545 556.432 958.601 556.048 959.273 555.472C959.945 554.8 960.281 553.6 960.281 551.872V522.208C960.281 516.928 959.465 513.04 957.833 510.544C956.201 507.952 953.081 506.656 948.473 506.656C943.961 506.656 940.361 508.096 937.673 510.976C934.985 513.856 933.641 517.264 933.641 521.2V556.048L941.849 556.48V568H907.577V557.056L912.329 556.624C913.769 556.432 914.825 556.048 915.497 555.472C916.169 554.8 916.505 553.6 916.505 551.872V511.984C916.505 509.104 915.305 507.616 912.905 507.52L906.857 507.088ZM1030.21 493.408C1034.34 493.408 1038.27 493.984 1042.02 495.136V480.592C1042.02 478.48 1040.77 477.328 1038.27 477.136L1032.08 476.704V465.328H1058.86V552.88C1058.96 555.088 1060.16 556.192 1062.46 556.192L1067.5 556.48V568H1044.18V559.504L1043.74 559.36C1039.42 566.368 1032.9 569.872 1024.16 569.872C1013.22 569.872 1005.54 566.224 1001.12 558.928C997.089 552.304 995.073 544.192 995.073 534.592C995.073 522.112 998.145 512.128 1004.29 504.64C1010.53 497.152 1019.17 493.408 1030.21 493.408ZM1042.02 545.536V508.24C1038.56 506.704 1034.91 505.936 1031.07 505.936C1024.74 505.936 1020.08 508.48 1017.1 513.568C1014.22 518.656 1012.78 525.136 1012.78 533.008C1012.78 549.136 1017.97 557.2 1028.34 557.2C1032.27 557.2 1035.54 556.096 1038.13 553.888C1040.72 551.584 1042.02 548.8 1042.02 545.536ZM1195.65 557.488C1206.12 557.488 1211.35 549.04 1211.35 532.144C1211.35 523.6 1210.15 517.12 1207.75 512.704C1205.45 508.288 1201.51 506.08 1195.94 506.08C1190.47 506.08 1186.44 508.192 1183.85 512.416C1181.25 516.64 1179.96 522.4 1179.96 529.696C1179.96 543.232 1182.45 551.728 1187.45 555.184C1189.65 556.72 1192.39 557.488 1195.65 557.488ZM1162.53 531.712C1162.53 524.608 1163.59 518.464 1165.7 513.28C1167.81 508 1170.65 503.968 1174.2 501.184C1181.01 496 1188.55 493.408 1196.81 493.408C1202.57 493.408 1207.41 494.368 1211.35 496.288C1215.38 498.112 1218.5 500.272 1220.71 502.768C1223.01 505.168 1224.93 508.72 1226.47 513.424C1228.1 518.032 1228.92 523.504 1228.92 529.84C1228.92 543.088 1225.7 553.12 1219.27 559.936C1212.84 566.752 1204.58 570.16 1194.5 570.16C1184.52 570.16 1176.69 566.944 1171.03 560.512C1165.37 553.984 1162.53 544.384 1162.53 531.712ZM1252.49 480.304H1261.85V495.568H1281L1279.56 507.664H1261.85V545.536C1261.85 549.76 1262.61 552.736 1264.15 554.464C1265.69 556.096 1268.04 556.912 1271.21 556.912C1274.47 556.912 1277.73 555.904 1281 553.888L1285.32 564.976C1280.52 568.336 1274.42 570.016 1267.03 570.016C1262.71 570.016 1259.06 569.44 1256.09 568.288C1253.11 567.232 1250.9 566.032 1249.46 564.688C1248.02 563.344 1246.92 561.376 1246.15 558.784C1245.38 556.192 1244.95 554.176 1244.85 552.736C1244.76 551.2 1244.71 548.992 1244.71 546.112V507.664H1234.49L1235.93 497.152C1240.44 496.768 1243.85 495.184 1246.15 492.4C1248.45 489.52 1250.57 485.488 1252.49 480.304ZM1328.51 506.512C1326.21 505.648 1323.42 505.216 1320.16 505.216C1316.9 505.216 1314.26 505.984 1312.24 507.52C1310.32 508.96 1309.36 510.784 1309.36 512.992C1309.36 515.104 1309.7 516.784 1310.37 518.032C1311.14 519.184 1312.29 520.192 1313.82 521.056C1316.22 522.304 1319.1 523.408 1322.46 524.368C1325.82 525.232 1328.32 525.952 1329.95 526.528C1331.58 527.008 1333.6 527.872 1336 529.12C1338.5 530.368 1340.37 531.712 1341.62 533.152C1344.98 536.704 1346.66 541.264 1346.66 546.832C1346.66 554.032 1344.02 559.696 1338.74 563.824C1333.55 567.856 1326.93 569.872 1318.86 569.872C1307.15 569.872 1298.32 568.384 1292.37 565.408V545.392L1305.33 544.384V551.296C1305.33 555.52 1309.36 557.632 1317.42 557.632C1325.49 557.632 1329.52 554.704 1329.52 548.848C1329.52 546.736 1328.8 545.008 1327.36 543.664C1326.02 542.32 1324.67 541.408 1323.33 540.928C1321.98 540.448 1320.35 539.968 1318.43 539.488C1316.61 539.008 1314.78 538.528 1312.96 538.048C1311.23 537.568 1309.31 536.944 1307.2 536.176C1305.18 535.312 1302.93 534.112 1300.43 532.576C1295.54 529.408 1293.09 524.128 1293.09 516.736C1293.09 509.248 1295.73 503.488 1301.01 499.456C1306.29 495.424 1312.91 493.408 1320.88 493.408C1328.94 493.408 1336.91 495.328 1344.78 499.168V516.448L1331.82 517.456V511.408C1331.82 509.008 1330.72 507.376 1328.51 506.512Z" fill="#727272"/>
<path d="M890.674 498.448V552.016C890.674 553.552 890.914 554.608 891.394 555.184C891.97 555.76 892.93 556.096 894.274 556.192L898.882 556.48V568H875.986V559.648L875.554 559.504C870.754 566.416 864.178 569.872 855.826 569.872C846.034 569.872 838.786 566.752 834.082 560.512C829.378 554.272 827.026 545.728 827.026 534.88C827.026 521.824 830.194 511.648 836.53 504.352C842.866 497.056 852.37 493.408 865.042 493.408C873.202 493.408 881.746 495.088 890.674 498.448ZM873.97 545.104V507.808C871.282 506.56 867.586 505.936 862.882 505.936C856.45 505.936 851.794 508.528 848.914 513.712C846.034 518.896 844.594 525.76 844.594 534.304C844.594 549.856 849.586 557.632 859.57 557.632C863.794 557.632 867.25 556.384 869.938 553.888C872.626 551.296 873.97 548.368 873.97 545.104Z" fill="#FFB901"/>
<path d="M1076.77 472.24H1117.38C1138.12 472.24 1148.48 480.256 1148.48 496.288C1148.48 505.12 1144.07 511.84 1135.24 516.448C1140.9 517.888 1145.32 520.528 1148.48 524.368C1151.75 528.208 1153.38 533.2 1153.38 539.344C1153.38 548.656 1150.21 555.76 1143.88 560.656C1137.64 565.552 1128.52 568 1116.52 568H1076.05V556.336L1080.8 555.904C1083.59 555.616 1084.98 554.272 1084.98 551.872V484.912L1076.77 484.48V472.24ZM1102.55 524.368V554.464H1116.08C1128.56 554.464 1134.8 549.376 1134.8 539.2C1134.8 534.4 1133.22 530.752 1130.05 528.256C1126.98 525.664 1122.56 524.368 1116.8 524.368H1102.55ZM1102.55 485.488V511.552H1113.2C1119.16 511.552 1123.52 510.352 1126.31 507.952C1129.19 505.456 1130.63 502 1130.63 497.584C1130.63 493.168 1129.19 490.048 1126.31 488.224C1123.52 486.4 1119.49 485.488 1114.21 485.488H1102.55Z" fill="#592969"/>
</svg>
