<svg width="21" height="22" viewBox="0 0 21 22" fill="none" xmlns="http://www.w3.org/2000/svg">
<path d="M14.3414 2.67554H6.09067C3.81231 2.67554 1.96533 4.57569 1.96533 6.91964V15.4079C1.96533 17.7518 3.81231 19.652 6.09067 19.652H14.3414C16.6197 19.652 18.4667 17.7518 18.4667 15.4079V6.91964C18.4667 4.57569 16.6197 2.67554 14.3414 2.67554Z" stroke="black" stroke-width="1.15553" stroke-linecap="round" stroke-linejoin="round"/>
<path d="M13.5163 10.6289C13.6181 11.3354 13.5008 12.0568 13.1811 12.6907C12.8614 13.3246 12.3555 13.8387 11.7355 14.1598C11.1154 14.4808 10.4127 14.5926 9.72738 14.4791C9.04203 14.3657 8.4089 14.0328 7.91805 13.5278C7.4272 13.0228 7.10362 12.3715 6.99333 11.6664C6.88305 10.9613 6.99168 10.2384 7.30377 9.60049C7.61586 8.96259 8.11553 8.44216 8.73169 8.11324C9.34785 7.78433 10.0491 7.66366 10.7358 7.76842C11.4362 7.87527 12.0847 8.21105 12.5853 8.72615C13.086 9.24125 13.4124 9.90836 13.5163 10.6289Z" stroke="black" stroke-width="1.15553" stroke-linecap="round" stroke-linejoin="round"/>
<path d="M14.7539 6.49536H14.7622" stroke="black" stroke-width="1.15553" stroke-linecap="round" stroke-linejoin="round"/>
</svg>
