<svg width="21" height="22" viewBox="0 0 21 22" fill="none" xmlns="http://www.w3.org/2000/svg">
<path d="M13.5254 7.76855C14.8383 7.76855 16.0974 8.30513 17.0258 9.26024C17.9542 10.2153 18.4758 11.5108 18.4758 12.8615V18.8032H15.1755V12.8615C15.1755 12.4112 15.0016 11.9794 14.6922 11.6611C14.3827 11.3427 13.963 11.1638 13.5254 11.1638C13.0877 11.1638 12.668 11.3427 12.3585 11.6611C12.0491 11.9794 11.8752 12.4112 11.8752 12.8615V18.8032H8.57495V12.8615C8.57495 11.5108 9.09651 10.2153 10.0249 9.26024C10.9533 8.30513 12.2124 7.76855 13.5254 7.76855V7.76855Z" stroke="black" stroke-width="1.15553" stroke-linecap="round" stroke-linejoin="round"/>
<path d="M5.27464 8.61743H1.97437V18.8033H5.27464V8.61743Z" stroke="black" stroke-width="1.15553" stroke-linecap="round" stroke-linejoin="round"/>
<path d="M3.6245 6.07082C4.53585 6.07082 5.27464 5.31076 5.27464 4.37318C5.27464 3.4356 4.53585 2.67554 3.6245 2.67554C2.71316 2.67554 1.97437 3.4356 1.97437 4.37318C1.97437 5.31076 2.71316 6.07082 3.6245 6.07082Z" stroke="black" stroke-width="1.15553" stroke-linecap="round" stroke-linejoin="round"/>
</svg>
