<svg width="21" height="22" viewBox="0 0 21 22" fill="none" xmlns="http://www.w3.org/2000/svg">
<g clip-path="url(#clip0_2_1133)">
<path d="M19.8053 3.5244C19.0152 4.09776 18.1404 4.53629 17.2146 4.8231C16.7177 4.2353 16.0573 3.81868 15.3227 3.6296C14.5882 3.44051 13.8149 3.48807 13.1075 3.76585C12.4 4.04364 11.7926 4.53824 11.3673 5.18276C10.942 5.82728 10.7194 6.59063 10.7296 7.36957V8.21839C9.27961 8.25707 7.84287 7.92623 6.5473 7.25535C5.25172 6.58447 4.13753 5.59437 3.30395 4.37323C3.30395 4.37323 0.00367177 12.0126 7.42929 15.4079C5.73008 16.5945 3.70588 17.1895 1.65381 17.1055C9.07942 21.3497 18.1552 17.1055 18.1552 7.3441C18.1544 7.10766 18.1323 6.87181 18.0892 6.63958C18.9312 5.78523 19.5255 4.70657 19.8053 3.5244V3.5244Z" stroke="black" stroke-width="1.15553" stroke-linecap="round" stroke-linejoin="round"/>
</g>
<defs>
<clipPath id="clip0_2_1133">
<rect width="19.8016" height="20.3717" fill="white" transform="translate(0.828857 0.978027)"/>
</clipPath>
</defs>
</svg>
