<svg width="21" height="22" viewBox="0 0 21 22" fill="none" xmlns="http://www.w3.org/2000/svg">
<g clip-path="url(#clip0_2_1134)">
<path d="M19.417 6.42744C19.319 6.0246 19.1194 5.6555 18.8383 5.35742C18.5573 5.05934 18.2047 4.84285 17.8163 4.7298C16.3972 4.37329 10.7208 4.37329 10.7208 4.37329C10.7208 4.37329 5.04428 4.37329 3.62517 4.76375C3.23676 4.8768 2.88424 5.0933 2.60319 5.39137C2.32215 5.68945 2.12254 6.05855 2.02453 6.46139C1.76481 7.94306 1.63777 9.44611 1.645 10.9517C1.63575 12.4685 1.7628 13.9831 2.02453 15.4759C2.13258 15.8662 2.33666 16.2213 2.61705 16.5068C2.89744 16.7922 3.24466 16.9985 3.62517 17.1056C5.04428 17.4961 10.7208 17.4961 10.7208 17.4961C10.7208 17.4961 16.3972 17.4961 17.8163 17.1056C18.2047 16.9926 18.5573 16.7761 18.8383 16.478C19.1194 16.1799 19.319 15.8108 19.417 15.408C19.6747 13.9375 19.8017 12.4459 19.7965 10.9517C19.8058 9.43477 19.6787 7.92026 19.417 6.42744V6.42744Z" stroke="black" stroke-width="1.15553" stroke-linecap="round" stroke-linejoin="round"/>
<path d="M8.86426 13.7273L13.6084 10.9517L8.86426 8.17603V13.7273Z" stroke="black" stroke-width="1.15553" stroke-linecap="round" stroke-linejoin="round"/>
</g>
<defs>
<clipPath id="clip0_2_1134">
<rect width="19.8016" height="20.3717" fill="white" transform="translate(0.819824 0.978027)"/>
</clipPath>
</defs>
</svg>
